<?xml version="1.0" standalone="no"?>
<!DOCTYPE svg PUBLIC "-//W3C//DTD SVG 1.1//EN" "http://www.w3.org/Graphics/SVG/1.1/DTD/svg11.dtd" >
<svg xmlns="http://www.w3.org/2000/svg">
<metadata>
This is a custom SVG webfont generated by Font Squirrel.
Copyright   :  J O E B O B graphics 2005 wwwjoebobnl
Designer    : J O E B O B graphics
Foundry     : J O E B O B graphics
Foundry URL : wwwjoebobnl  wwwmyfontscom
</metadata>
<defs>
<font id="dearJoe4Regular" horiz-adv-x="458" >
<font-face units-per-em="1000" ascent="800" descent="-200" />
<missing-glyph horiz-adv-x="500" />
<glyph unicode=" " />
<glyph unicode="," horiz-adv-x="424" d="M349 59q0 -14 -21 -40q-29 -36 -31 -40q-12 -3 -37 -24.5t-40 -21.5q-10 0 -22 25l90 130q19 -3 37 -5q24 -6 24 -24z" />
<glyph unicode="." horiz-adv-x="407" d="M322 34q0 -19 -18.5 -32t-37.5 -13q-13 0 -27.5 12t-14.5 24v44q60 16 56 16q9 0 25.5 -21t16.5 -30z" />
<glyph unicode="0" horiz-adv-x="330" d="M320 313q-9 -14 -21 -48q-10 -4 -10 -27q-10 1 -15 -3q2 -9 11 -10q-16 -19 -71 -107q-43 -67 -83 -96q-1 0 -23 -23q-13 -13 -29 -13q-29 0 -49 17q-23 17 -23 45q0 33 16 72q19 47 47 51q-1 2 -5 7.5t-4 10.5q0 20 84.5 113.5t114.5 93.5q8 0 22 -4t22 -4q3 -11 3 -19 q0 -5 -1 -13t-1 -12q0 -15 15 -31zM267 301l-5 2l-5 -9l5 -3zM233 276q-19 -12 -85 -68q-10 -32 -27 -42q-6 -10 -12.5 -21t-20.5 -13q5 -3 12 -8q-8 -6 -8 -16q-1 -2 -7 -2t-10 -4.5t-6 -4.5q7 -11 22 -26q12 12 19 12q8 0 12 -4q16 28 50 85l6 -7h14q0 27 20 62 q17 28 35 57h-14z" />
<glyph unicode="1" horiz-adv-x="224" d="M183 377q0 -11 -9 -33.5t-9 -36.5q0 -35 -15 -82q-14 -40 -27 -79q-4 -16 -5.5 -52.5t-8.5 -53.5q-5 -12 -19 -31q-17 -24 -25 -24t-34 22.5t-26 30.5q0 5 36 76q40 77 44 86q24 73 76 218q1 -9 11.5 -22t10.5 -19z" />
<glyph unicode="2" horiz-adv-x="366" d="M335 398q0 -27 -50 -110q-37 -63 -71 -108q-8 0 -13 -4q-2 -23 -28 -52q-35 -39 -40 -48q10 -6 47 -6q11 0 30 5.5t28 5.5q5 0 17.5 -5.5t17.5 -5.5t12.5 5.5t11.5 5.5q0 -2 2 -6.5t2 -8.5q0 -15 -17 -18h-28q-2 -2 -2 -6q0 -6 6 -16q-5 2 -31 2q-9 0 -15 1q0 -7 -3 -22 q-7 4 -16 4h-6q-59 -23 -141 -23q-8 0 -19 15t-11 22q0 13 5 22q26 27 67 70q2 1 20 12q7 16 46 71q33 46 35 67h2q7 0 22 29q10 18 19 37q-4 4 -12 10q-4 -4 -3 -19q-23 1 -62 -55.5t-48 -56.5q-10 0 -26.5 20t-16.5 30q0 5 4.5 15.5t4.5 16.5l8 -4q26 31 101 89 q83 64 108 64q17 0 30 -13.5t13 -31.5z" />
<glyph unicode="3" horiz-adv-x="359" d="M341 370q-47 -41 -95 -82q-57 -49 -83 -92q2 -6 26 -15l32 -10q20 -9 38.5 -35.5t18.5 -47.5q0 -5 -6.5 -23.5t-7.5 -23.5q-8 -42 -32 -70q-27 -27 -54 -55q-80 -83 -121 -91q-2 22 -20 27q3 2 20 20q14 16 19 16q-4 0 11 -4l6 6l-11 13q-1 -1 18 -1q18 0 20 44l56 64 q32 42 32 76q0 35 -47 35q-12 0 -41.5 -15.5t-34.5 -25.5h-12q-12 0 -31 15.5t-19 27.5q0 4 60 81q13 16 36 24q4 20 22 46q28 39 30 41q-2 9 -15 9q-16 0 -46 -13.5t-33 -26.5h-19q-5 0 -22 17.5t-17 22.5q0 27 75 50q65 21 101 21q4 0 4.5 -2t4.5 -2q13 0 43 13t44 13 q10 0 27 -17.5t23 -29.5z" />
<glyph unicode="4" horiz-adv-x="498" d="M491 158q-12 -12 -35.5 -22t-39.5 -10q-4 0 -9.5 2t-8.5 2q-6 0 -29.5 -11t-28.5 -11q-4 0 -6.5 2t-6.5 2q-20 0 -26.5 -17t-12.5 -32q1 -6 1 -12q0 -65 -49 -65q-2 0 -37 25q0 11 7.5 30.5t6.5 31.5q-9 -1 -44 -9q-28 -6 -44 -6q-5 0 -6 3.5t-5 3.5t-18.5 -7t-19.5 -7 t-14.5 5t-14.5 5q-4 0 -4 -1q2 -2 2 -4q0 -1 -3 -2q-6 0 -35 40q71 72 160 169q1 1 23 18q13 10 13 25q8 8 48 43q30 26 43 47q7 12 26.5 20t34.5 7q13 31 24.5 40.5t41.5 9.5q7 0 18.5 -13t11.5 -20q0 -28 -23 -46.5t-46 -35.5v-3q0 -5 3 -13q-16 -25 -44 -90 q-31 -71 -31 -91q0 -13 13 -13q16 0 49.5 11t49.5 11q10 0 17 -15q13 2 37 11q1 -7 11 -8zM292 288q-41 -18 -89 -76l-76 -92h41q13 0 35 6q30 8 34 10.5t24 52.5q6 7 16 22q5 10 9 37q4 33 6 40z" />
<glyph unicode="5" horiz-adv-x="428" d="M479 436q-5 -13 -17 -13q-4 0 -8.5 1.5t-7.5 1.5q-2 -6 -7 -17q-41 6 -36 6q-8 0 -26 -14t-34 -14q-6 0 -17.5 2t-17.5 2q-15 0 -58.5 -28t-48.5 -42q-4 -8 -7 -24q-1 -2 -1 -36q0 -37 -11 -50q0 -1 3.5 -4.5t3.5 -8.5v-89q0 -31 -25 -84q-28 -59 -55 -59q-4 0 -11 -3.5 t-12 -3.5q-6 0 -20 16h-7q-40 0 -40 58q0 19 33 60q2 0 6 -3.5t9 -3.5t9.5 3.5t5.5 3.5v-6q0 -17 7 -54q16 13 26 45q9 28 9 52q0 5 4 14.5t4 14.5v110q0 16 -1 42q-3 33 -3 42q-10 12 -10 15q0 25 66 48q57 21 90 21q3 0 6 -2t6 -2q11 0 53 12.5t64 12.5q16 0 39 -8 q18 -7 37 -14z" />
<glyph unicode="6" horiz-adv-x="370" d="M387 578q0 -32 -10 -45t-53 -52q-47 -42 -55 -42q-5 0 -5 1q2 2 2 4t-1 3q-18 -41 -87 -127q30 -21 60 -43q37 -29 37 -61q0 -8 -7.5 -20.5t-13.5 -17.5q1 -8 13 -18q-3 -4 -22 -20.5t-19 -19.5q0 -7 16 -17l-40 -44q-26 -31 -33 -46h-6q-16 0 -29.5 -10.5t-25.5 -10.5 q-7 0 -35 12t-35 17q-2 30 -29 100q0 33 33.5 77t33.5 62q0 26 18 33q-5 4 -16 2q0 8 -5 14q41 13 63.5 48.5t33.5 40.5q0 6 -8 6q9 8 27 30q15 20 28 28q-1 1 -1 5q0 23 109 143q7 2 30 2q5 0 18.5 -14.5t13.5 -19.5zM206 179q0 37 -14.5 50t-52.5 17q-2 -3 -26 -43 q-18 -30 -32 -35q6 -5 6 -14q0 -7 -5 -20.5t-5 -20.5q0 -11 5 -28q8 -27 9 -28q34 12 72 49q43 42 43 73z" />
<glyph unicode="7" horiz-adv-x="447" d="M420 417q0 -22 -24 -35q-21 -8 -61 -29q-14 -16 -47 -43l-22 -46q-12 -28 -12 -50q29 -2 47 -2q10 0 31.5 1.5t31.5 1.5t11.5 -5t4.5 -5t3 1v0q0 2 3 2q1 0 21 -15l-4 -8q-10 3 -37 3q-9 0 -12.5 -3.5t-9.5 -6t-27.5 -10t-26.5 -7.5q-14 0 -21 7q-4 -1 -7 -9 q-11 -1 -32 -6q-9 -23 -31 -66q-9 -54 -31 -91q-13 -11 -33 -46l11 3q-1 0 -16 -33q-9 -20 -23 -26q-13 -48 -34 -95q-11 -13 -30 -41q-9 3 -53 30q1 24 16 45t30 40q10 15 34 53q9 8 24 27q0 1 18 58q12 38 33 47q7 16 14 49q-11 6 -23 13q-21 13 -21 31q0 13 30 27 q24 12 42 14q10 25 21 51q14 35 11 50q5 4 18 45q-3 6 -10 6q-27 0 -65 -19q-50 -24 -64 -28q11 -16 14 -30l-4 -7l-37 -1q-4 0 -29 25.5t-25 30.5q0 29 57 45q33 8 113 17q68 8 78 14.5t22.5 25.5t22.5 26q16 13 44 13q21 0 41 -10q25 -11 25 -29z" />
<glyph unicode="8" horiz-adv-x="376" d="M388 506q0 -33 -126 -147q-23 0 -41.5 -27t-15.5 -50q-21 -10 -21 -19q0 -7 5.5 -22t5.5 -22q0 -6 -3 -18.5t-3 -18.5q0 -5 5 -11.5t5 -11.5q0 -47 -16 -104q-21 -75 -55 -75h-23q-5 0 -10 4q-9 6 -10 7q-67 30 -67 164q0 6 15 45q16 45 17 51q20 24 63 67q5 24 5 34 q0 17 -7.5 51t-7.5 51q0 5 8.5 13t9.5 9q9 16 33 42q55 36 167 36q19 0 43 -15t24 -33zM310 504q1 0 -31 0q-13 0 -22.5 -11.5t-12.5 -11.5q-11 0 -9 3q0 -12 -29.5 -27t-29.5 -47q0 -9 2.5 -28t2.5 -28q55 50 67 62q37 36 62 66v22zM142 165q0 14 -9 58q-49 -40 -49 -98 q0 -25 16 -75q26 17 29 28q13 56 13 87z" />
<glyph unicode="9" horiz-adv-x="467" d="M444 304q0 -41 -56 -88q-4 -25 -46 -132q-7 -28 -15 -57q-11 -40 -27 -45q0 -2 2.5 -7.5t2.5 -6.5q0 -11 -15 -31q-37 -205 -101 -265q-14 11 -43 31q2 26 28 78q36 73 38 79q15 34 38 105q22 110 50 169l-10 10q-4 0 -4 -5l3 -6q-1 0 -32 -26q-58 -47 -78 -60 q-41 -28 -88 -44q-5 -10 -11 -10q-15 0 -40.5 19.5t-25.5 33.5q0 30 23 55q8 8 41 34q22 16 19 27h4q5 0 8 -3q7 15 30 32.5t41 22.5q-1 6 -8 7l-3 -2q19 30 31 30q5 0 6 -2t6 -2q125 121 175 121q22 0 39.5 -20t17.5 -42zM319 248q-12 -3 -32 -14q-11 10 -16 11 q-1 -8 -21 -30t-27 -22q-4 0 -5 1.5t-5 1.5q-21 -14 -23 -31q-5 -2 -20 -19.5t-17 -17.5q-4 0 -4 2h1q0 2 -4 2q-5 0 -20 -24l-18 -31q4 0 10.5 -2.5t10.5 -2.5q5 0 18 9.5t17 9.5q5 0 6 -4t6 -4q15 0 53.5 48.5t55.5 54.5q-1 2 -1 5q0 10 14 29q10 14 21 28z" />
<glyph unicode="A" horiz-adv-x="545" d="M529 303q-5 0 -5 1l1 1q0 3 -5 3q-3 0 -53 -26v1q1 0 1 -20q0 -10 -4.5 -15.5t-4.5 -15.5q0 -6 3.5 -17t3.5 -18q0 -13 -17 -22q9 -29 9 -45q0 -7 -18 -23q15 -8 15 -24q0 -5 -2.5 -15.5t-2.5 -15.5q6 -7 19 -19q-1 -3 -1 -7q0 -8 3.5 -22.5t3.5 -21.5q0 -10 -4.5 -22.5 t-11.5 -23.5t-15.5 -18.5t-16.5 -7.5q-12 0 -25 9.5t-13 21.5q0 16 11 24q0 10 -1 29t-1 29q0 8 2 15.5t11 25.5q-6 10 -6 28q0 7 2.5 20t5.5 27.5t5.5 28t2.5 20.5q0 14 -6 23q12 10 12 19q0 26 -10.5 36.5t-47.5 10.5q-1 0 -10.5 -3.5t-24 -8.5t-31.5 -11.5t-33 -11.5 t-28 -8.5t-17 -3.5q-8 0 -16 8q-24 -23 -46 -50t-38.5 -51.5t-26.5 -43.5t-10 -26q0 -10 10 -14q-17 -58 -70 -99q-5 3 -13 7.5t-19 10.5q7 22 12 42t13 39.5t21 39.5t36 41v28q-26 11 -26 27q0 12 11.5 18.5t28.5 15.5t37 25.5t38 49.5q11 20 22 32t21 20v6q0 16 9 35 t23 40t30 45.5t30 53.5l9 18t6 6q7 0 7 -3l1 -2q4 4 4 11t-9 10h18q3 4 3 13q0 8 -3 16q28 48 60 104.5t74 137.5q2 8 3.5 16.5t4.5 16t9 12t16 4.5q3 0 9.5 -2t13 -4.5t12 -4.5t5.5 -3l-0.5 -6.5t1 -14.5t5 -14.5t10.5 -6.5v-59q0 -7 -5.5 -20t-12.5 -26.5t-13 -25 t-7 -14.5q-2 -31 -6 -61.5t-20 -46.5q2 -6 2 -18q0 -14 -4.5 -43t-9.5 -61t-9.5 -61t-4.5 -43q0 -8 5.5 -11t16 -4.5t25.5 -3t33 -6.5q-1 0 -3.5 -4.5t-5.5 -9.5t-6.5 -9t-6.5 -4zM475 598q-3 11 -4.5 26t-2.5 32l-3 57q-17 -20 -41 -56t-50.5 -79.5t-54 -90t-51.5 -88 t-43.5 -73.5t-29.5 -46v-15h23q1 0 13 4l25.5 8.5t25 8.5t12.5 4q4 0 4 -1v-1q0 -2 4 -2q3 0 22 6.5t43 15t47.5 17.5t34.5 14v28q-17 8 -17 12q0 25 28 81q-4 32 -5.5 50t-1.5 22q0 44 22 66z" />
<glyph unicode="B" horiz-adv-x="778" d="M842 385q-2 -3 -2 -14q0 -4 -8 -7q-19 -7 -81 -22q-51 -12 -81 -27l-2 -64q-4 -36 -19 -61q-10 -10 -24 -33q-68 -70 -105 -100q-63 -53 -124 -73q-14 -4 -34 -18q-29 -20 -32 -22l-9 9q-5 -5 -50.5 -28t-52.5 -23q-5 0 -5 1v1q0 2 -5 2t-6.5 -7t-7.5 -7q-5 0 -5 2 q1 0 1 1q0 2 -5 2q-6 0 -21 -11.5t-21 -11.5q-17 0 -49.5 -9.5t-49.5 -9.5q-22 0 -51.5 23.5t-29.5 44.5q0 16 35.5 72.5t48.5 56.5q5 0 5 -2q-1 0 -1 -1q0 -2 5 -2q11 0 28 50q20 59 25 65q0 30 17.5 71l17.5 41q0 4 -2.5 12t-2.5 12q0 5 3 10q17 30 47 93l32 84 q20 47 42 79q-1 2 -1 6q0 16 21.5 68t21.5 63v30q-3 0 -10.5 2t-11.5 2q-8 0 -51.5 -18.5t-51.5 -18.5q-5 -1 -5 1q1 0 1 1q0 2 -5 2q-6 0 -24.5 -14t-18.5 -20q2 -3 9 -3q-9 -7 -25 -22q7 -15 19 -47q-31 0 -70 16q-47 20 -47 46q0 12 25 32q22 18 37 24q29 12 57 13 q14 13 19 13t5 -2v0q0 -3 4 -3q6 0 13 8t10 9q20 8 62 16t60 15q5 2 16 12t17 10q17 0 50.5 -7t50.5 -7q7 0 21 2.5t21 2.5q97 0 154 -44q0 -2 -28 -82q-9 -1 -16 14q-5 -19 -18 -54q-5 -10 -37 -40q-22 -20 -43 -40l-68 -55q-48 -39 -52 -60q40 10 64 10q77 0 132 -24 q10 -5 52 -34q37 -26 44 -26t9.5 -5t7.5 -5q11 0 17 17q73 12 142 17zM557 726q0 10 -6 14q-9 1 -40 11q-26 7 -41 7q-5 0 -10 -4.5t-13 -4.5q-5 0 -11.5 4.5t-11.5 4.5q-6 0 -15.5 -4.5t-14.5 -5.5q3 -8 3 -15q0 -4 -2 -7q1 -3 1 8q0 1 -5 1q-7 0 -20 -25t-9 -33 q-16 -32 -106 -246q78 52 174 137q127 112 127 158zM594 339q-13 31 -64 49q-41 15 -83 15q-24 0 -94.5 -30.5t-111.5 -30.5q-5 0 -15 1.5t-15 2.5v-2q2 -21 -15.5 -75t-17.5 -71v-43q31 5 74 20l28 28q19 17 34 17q5 0 5 -1l-1 -1q0 -3 5 -3q6 0 12.5 12.5t9.5 14.5 q13 8 99.5 44.5t96.5 36.5q5 0 6.5 -2.5t7.5 -2.5q7 0 20 9q18 11 19 12zM609 265q0 6 -3 17.5t-3 16.5q-126 -28 -286 -115q-45 -26 -139 -73q2 -33 -56 -59h-7q-4 1 -6 1q-3 0 -6 -3q-1 -15 -24 -55.5t-23 -58.5v-34h21q23 0 102 27q72 25 101 40q178 93 270 177l-2 19 q13 12 40 34q1 11 11 36t10 30z" />
<glyph unicode="C" horiz-adv-x="521" d="M646 886q0 -31 -93 -173q-11 -14 -27 -42q-19 -55 -64 -160l-14 -9v-4q1 -29 -34.5 -84.5t-33.5 -90.5q-4 17 -4 33q0 17 3 22q1 2 8 7t7 6q0 5 -4 13.5t-4 13.5q0 11 14 23q10 10 21 19q-4 6 -8.5 12t-4.5 15q0 13 37 94t37 112q0 12 -7.5 17.5t-16.5 10.5 q-39 -9 -85 -60q-42 -44 -83 -89q-36 -42 -72 -88q-163 -217 -143 -345q0 -52 26 -97q31 -52 80 -52q29 0 124 35q57 35 118 61q9 5 17 21q7 -5 7 -13q0 -22 -134 -107q-59 -25 -83 -29.5t-29 -4.5q-4 0 -13 -1t-14 -1q-77 0 -124 79q-40 67 -40 150q0 37 19 93l13 2v3 q0 -3 -3 2t-3 8q0 31 89 169q7 12 21 32q10 11 31 34q18 26 55 76q162 204 260 204q7 0 19 -4t18 -4q3 0 37 58.5t58 58.5q22 0 22 -26z" />
<glyph unicode="D" horiz-adv-x="781" d="M904 377q-5 -2 -27.5 -10.5t-28.5 -8.5q-3 0 -9.5 2t-10.5 2q-13 0 -35.5 -10t-28.5 -21q-23 12 -31 12q-2 0 -6 -4t-10.5 -4t-18 -6.5t-18.5 -6.5q-5 0 -5 1l1 1q0 2 -5 2q2 0 -159 -130t-186 -130q-5 0 -5 1v1q0 3 -4 3q-179 -117 -202 -117q-5 0 -5 1l1 1q0 3 -5 3 l-36 -22.5t-52 -22.5q-3 0 -22.5 9t-32.5 9q-5 10 -5 29q0 26 32 53t32 28q3 14 14 31q17 24 19 28q7 13 36 99q21 62 54 89l-1 5q5 19 8 57q31 43 57 107q22 57 43 114q16 40 56 75q-4 4 -13 3q9 60 17 91q-4 7 -11 7q-29 0 -80 -19q-57 -22 -80 -25q0 -24 -26.5 -48 t-26.5 -27q0 -14 7 -35q9 -24 20 -27q-3 -5 -5 -10.5t-9 -5.5q-5 0 -25 14q-25 17 -27 18q-2 8 -24 29q-18 17 -18 47q0 23 84 66q79 41 105 41q4 0 11.5 -4.5t11.5 -4.5l6 8l-2 4q10 5 41.5 14.5t41.5 9.5q5 0 8.5 -4.5t8.5 -4.5q6 0 7.5 4.5t6.5 4.5t12.5 -4.5t12.5 -4.5 q162 0 274 -32q174 -51 174 -172q0 -26 -12 -37q1 7 1 -21q0 -7 -26 -54q-22 -40 -32 -55q-6 -10 -25 -18v-19h72q17 0 52.5 3t52.5 3zM748 594q0 64 -73 103q-19 10 -68 28q-53 19 -68 19q-8 0 -24.5 -2.5t-25.5 -2.5q-7 0 -19 5.5t-17 6.5q-24 -2 -70 1q-2 -36 -31 -89 q-23 -42 -47 -84q-33 -82 -108 -241q-4 -27 -17 -62q-16 -40 -32 -54v-5q0 -9 -5.5 -24.5t-5.5 -23.5q0 -6 2.5 -8t2.5 -4h21q15 30 21 30q5 1 5 -1v-1q0 -3 4 -2q29 21 87 57q103 51 120 51q4 0 8.5 -2.5t9.5 -2.5q9 0 21 7q9 11 76.5 38t83.5 27q6 0 11 -4.5t10 -4.5 t16 4.5t16 4.5q33 55 64.5 110t31.5 126zM560 308v-12h16q0 4 5 12h-21zM545 260q1 -1 1 32q0 3 -2 7q-37 -5 -105 -24q-4 -2 -17 -13.5t-16 -11.5q-4 0 -8.5 2.5t-8.5 2.5q-12 0 -123.5 -67.5t-127 -83.5t-28.5 -52q-19 -52 -22 -57q59 23 246 114v4q0 12 30 28 q38 19 40 21q19 21 60 56q15 3 40 16q13 11 41 26z" />
<glyph unicode="E" horiz-adv-x="535" d="M762 747q-3 7 -13 7q6 0 -53 -8q-80 -10 -127 -10q-22 0 -31 2q-3 0 -8.5 3.5t-8.5 3.5q-6 0 -17 -4t-17 -4t-37 5q11 12 11 20l-1 5l-11 -10q-21 -1 -31 -4q-16 -4 -26 -16h-9q-59 2 -102 -54q-33 -51 -67 -103q-9 -13 -35 -71t-26 -70q0 -6 6 -11q67 10 128 12 q40 1 121 7l-3 -21q-11 -1 -35.5 -5t-37.5 -4q-21 0 -94 -21q-80 -22 -105 -25q-28 -34 -39.5 -71.5t-22.5 -75.5q-17 -10 -17 -39q0 -10 3 -31q7 -71 20 -93q22 -37 85 -37q90 0 266.5 90t226.5 163l4 -5q-7 -17 -13 -35q-9 -19 -22 -31q-159 -137 -244 -185 q-28 -15 -60 -15q-66 -38 -147 -38q-60 0 -103 62q-40 56 -40 118q0 45 19 126q5 19 11 55l-2 4q-6 0 -30 -9.5t-33 -9.5q-11 0 -22 27q-10 23 -10 36q47 13 139 46q7 3 18.5 24.5t21.5 22.5v5q0 26 11 53q25 8 31 28q3 21 6 41q16 3 31 33q11 22 21 45l18 -3q6 12 19 19 q-2 16 -9 48q-54 -45 -185 -45q-31 0 -37 20q-9 28 -15 32l2 16q87 6 261 19q5 7 8 23q5 23 5 25q10 -19 42 -51q215 6 199 6q20 0 27 -7v-1q0 -4 3 -8q3 1 13 15q20 0 58 -2q39 -5 124 -23zM180 527l-6 3l-7 -10l6 -4z" />
<glyph unicode="F" horiz-adv-x="562" d="M881 837q0 -18 -32 -46.5t-50 -28.5h-32v20q0 7 7 17q10 14 11 15q-2 1 -90 6q-34 2 -31 3l-324 -71q-2 -4 -2 -9q0 -8 6 -24q1 1 3 1q3 -3 7 -9q-23 -19 -53 -74l-44 -84q-8 -16 -17 -45q-11 -36 -15 -46q-2 -6 -21 -24q-12 -12 -12 -43q0 -7 6 -7q8 0 53 19t53 19 q5 0 6.5 -2.5t6.5 -2.5q3 0 49.5 19.5t64.5 21.5q54 6 115 6q24 0 24 -9q-2 -4 -4 -6q-5 -2 -106 -28q-46 -11 -128 -40q-70 -25 -85 -25q-5 0 -10.5 -5t-9.5 -5q-5 0 -5.5 2.5t-5.5 2.5q-4 0 -17 -11q-9 -7 -17 -14q-24 -17 -38 -50l-18 -60l-16 -44q-9 -26 -9 -46 q0 -11 1.5 -34.5t1.5 -34.5q0 -131 -59 -131q-16 0 -29 33q0 20 14 63.5t26 53.5q0 4 -4.5 12t-4.5 13q0 15 12.5 66.5t19 63.5t29.5 47l-6 7q-11 -14 -22 -14q-5 0 -6 2t-5 2q-6 0 -11 -9.5t-11 -9.5q-5 0 -13.5 2.5t-13.5 2.5t-11 13q-10 16 -10 17v17q47 16 140 51 q-6 7 -13 7q9 23 29 56q24 41 31 55q3 7 15 72q8 43 42 61q4 22 7.5 45t16.5 39v17v1q0 3 -7 3q-23 0 -88 -43q-60 -40 -81 -64q4 -4 22 -3q-31 -32 -31 -41t22 -56q1 -6 -11 -6q-26 0 -67 25q-45 27 -45 51q0 50 190 142q37 18 41 18t4 -1v-1q0 -3 4 -2q70 42 90 42 q5 0 6 -2.5t5 -2.5q18 17 35 22q191 63 492 63q33 0 33 -23z" />
<glyph unicode="G" horiz-adv-x="855" d="M971 383q-77 -17 -102 -17q-5 0 -6 2.5t-6 2.5q-20 0 -166 -44q-7 -17 -21 -50q-7 -5 -39 -40q-20 1 -28 -22l-10 -32q-18 -11 -45 -43q-26 -54 -89 -234q-67 -192 -67 -225q0 -25 15 -44q27 -36 28 -38q-7 -38 -16 -113q-13 -12 -24.5 -23t-31.5 -11q-6 0 -17 -6 q-8 4 -17.5 23t-9.5 28l16 67q-11 18 -11 39q0 28 36 149.5t51 146.5q-11 12 -11 27q0 18 18 51q24 43 27 52q-9 4 -18 23q-27 -18 -109 -60q-91 -47 -102 -47t-31.5 -2.5t-30.5 -2.5q-6 0 -17 7.5t-17 7.5q-5 0 -6.5 -5t-7.5 -5q-37 0 -71 50q-31 47 -31 86q0 29 38 102 q35 67 61 94q13 14 40 18t35 16l-24 9q21 28 65 83q27 29 151 141q131 118 140 118q6 0 5 -2t4 -3q3 3 3 8q0 7 -4 15q28 10 44 22q7 8 15.5 16.5t17.5 8.5q6 0 17 -2q4 4 3 23q2 1 83 46q49 28 89 28q44 0 65 -22q-19 -29 -21 -50q-35 -21 -86 -64q-63 -52 -84 -67h-17 q12 19 34 74q-11 13 -27 13q-7 0 -50 -31.5t-49 -31.5t-6 1q1 0 1 1q0 3 -5 3q-3 0 -42 -48t-71 -46q-1 -2 -176 -182q-115 -118 -150 -193q-13 -7 -31 -45q0 -46 22 -91q27 -55 67 -55q46 0 197 78q16 10 49 25q14 35 58 44q30 43 87 132q-4 3 -22 7.5t-24 4.5 q-12 0 -72 -72h-17q-2 4 -32 36q-22 26 -22 39t105.5 43t269.5 64q57 11 61 11q4 1 5 0l-2 -1q1 -1 5 -1q13 0 40.5 2t41.5 2q61 0 79 -12z" />
<glyph unicode="H" horiz-adv-x="764" d="M891 343q-8 -3 -57 -16q-36 -10 -58 -10l-10 9q-28 -1 -82.5 -9t-88.5 -8q-40 -18 -55 -55q-21 -54 -31 -65q-9 -48 -42 -140t-41 -141q-1 -7 -10 -35q-8 -21 -8 -36q0 -7 13 -27v-7q1 -20 -18 -44.5t-38 -24.5l-26 2l-11 22q-7 15 -7 22q0 29 37 124q5 21 17 64 q8 23 74 171q59 132 59 152q0 10 -11 18q-10 -8 -33 -8q-7 0 -19.5 4t-18.5 4q-19 0 -51 -6q-38 -7 -50 -8q-34 -4 -77 -4q-6 0 -14.5 2t-13.5 2q-25 0 -76 -124q-60 -149 -68 -158q1 -4 1 -8q0 -23 -17 -76q-20 -58 -36 -58q-8 0 -20.5 7.5t-12.5 14.5q0 19 25.5 78.5 t40.5 74.5q5 36 21 78q20 55 43 67q-2 13 -17 10q0 3 25 29l-8 3q0 7 13 45q-101 -12 -109 -15q-56 -19 -62 -84q-17 7 -46 27q-6 7 -15 23.5t-9 23.5q0 32 59 49q37 11 117 19q71 6 79 11q28 14 24 43q1 2 43 84q27 53 51 75q-1 61 25 100q12 8 33 27q-1 3 -1 9 q0 17 9.5 36t24.5 22q-3 9 -3 16q0 35 47 35q40 0 40 -15q-100 -202 -142 -226l8 -4q-11 -32 -33 -78q-3 -9 -34 -50q-22 -30 -22 -57q0 -9 8 -13h123q18 0 52.5 4.5t50.5 4.5q46 0 75 -5q25 43 65 135q27 97 55 100q3 3 3 5q0 8 -2 7t-2 7q0 15 10 28t20 25q1 9 10.5 25 t12.5 21q5 22 20 67q10 12 27 36q7 32 16 64q11 37 45 37q6 0 23 -8.5t20 -9.5q0 -24 -8 -81q-1 0 -28 -7q-39 -60 -78 -123q-57 -89 -55 -124h-14q-25 -55 -74 -169v-12q23 -8 38 -8q32 0 97 6t97 6q28 0 55 -1z" />
<glyph unicode="I" horiz-adv-x="979" d="M435 604q-9 3 -24 3q-13 0 -26 -3q15 11 25 11q3 0 25 -11zM1147 863q0 -26 -52 -52q-43 -21 -78 -26q-5 -6 -38 -21q-26 -13 -24 -26q-45 -29 -80 -111q-40 -93 -69 -122q6 -12 6 -22q0 -14 -13 -37q-15 -26 -17 -37q-8 -37 -26 -86q-25 -67 -43 -69q-1 -2 -1 -5t3 -9.5 t3 -10.5q-12 -11 -40 -75q-24 -55 -55 -71q-1 -7 -7 -21q-2 -1 -36 -30q-104 -87 -147 -87q-7 0 -20.5 -2t-20.5 -2h-46q-5 0 -7.5 8.5t-7.5 8.5q-4 0 -7 -2.5t-7 -2.5q-6 0 -15 8.5t-15 8.5q-4 0 -5.5 -2t-6.5 -2q-6 0 -23 12.5t-23 12.5q-5 0 -5.5 -1t-2.5 -1q7 0 7 15 h-14q-11 -1 -14 -1q-5 0 -33 20t-35 23q-1 12 3 17q-24 15 -51 52q-22 30 -43 61q1 8 1 16q0 11 -1 32.5t-1 33.5q0 9 -8.5 17.5t-8.5 15.5q0 6 5 11t5 7q0 -8 5 -19q7 3 13 10.5t10 9.5q-21 20 -42 36v21q0 16 21 30l-9 8q8 8 25 21q-3 4 -10 9h11q10 78 92 131 q73 47 157 49q-1 -3 -10 -20q-17 2 -50 12q-4 -7 -3 -24h-4q-44 0 -132 -75q-2 -40 -26.5 -61t-24.5 -54v-104q4 -15 8 -31t17 -28q-4 -5 -4 -13q0 -9 9 -31.5t8 -37.5q27 -15 52 -54q0 -12 9 -36q21 -4 62 -15q12 -4 48 -31q28 -21 58 -21q13 0 39.5 -2t39.5 -2 q40 0 118 54q74 52 97 90q9 17 19 34q14 23 23 25q2 10 13.5 33l11.5 23q0 3 -1.5 8.5t-1.5 8.5t13 24t15 27q17 49 50 146q16 50 37 71q12 104 72 191q-3 2 -7 19q-20 3 -16 3q-11 0 -38 -8q-30 -10 -40 -11q-46 -6 -75 -6q-12 0 -35 3.5t-34 3.5t-16.5 -3t-4.5 -3 q-7 0 -37 12l-12 -8q-1 5 -8 12q-6 -1 -6 -16l-27 4q-5 0 -23 -27q10 -12 19 -33q13 -33 14 -35h-3q-20 0 -88 41q-46 27 -91 54v28q3 4 21.5 11t23.5 6l279 -12q49 -2 122 8q119 18 121 18q18 22 37 44q23 26 43 36q72 36 96 36q15 0 39.5 -11.5t24.5 -24.5zM377 617 q-20 -7 -27 -7l-6 3t-13 10q22 -2 46 -6z" />
<glyph unicode="J" horiz-adv-x="876" d="M1122 823q0 -11 -22 -32t-33 -21q-6 0 -6.5 2.5t-5.5 2.5q-10 0 -25 -27q-8 -1 -24.5 -8.5t-25.5 -7.5q-5 0 -7 2t-7 2q-7 0 -19.5 -12t-19.5 -12q-5 0 -6 2.5t-6 2.5q-22 0 -66 -65q-37 -54 -51 -89q-12 10 -29 10q-4 0 -26 -13v-4q1 -9 -4.5 -19t-10.5 -19l7 -8 q14 10 42 39q-25 -54 -49 -107q-35 -72 -57 -98v-7q2 -56 -59 -109q0 -4 5 -9.5t5 -10.5q0 -12 -10 -33q-7 -1 -17 18q-17 -7 -17 -34q0 -8 1 -22t1 -21q0 -26 -9 -43v5q0 9 -5 19l-67 -67q3 24 15 56l22 54q15 40 29 86q3 0 16 -14q8 18 22 33v17q-3 3 -10 3q-8 0 -13 -4 q10 21 73 158q8 -5 39 -5q21 0 21 22q0 23 -23 32q0 6 6 16.5t6 16.5q0 22 -12 37h34q3 17 10 49q4 -2 9 -2q4 0 10.5 1t10.5 1q21 92 41 91q-9 16 -19 32.5t-29 16.5q-6 0 -13.5 -9.5t-13.5 -9.5q-5 0 -6 4.5t-6 4.5t-9 -4.5t-10 -4.5q-7 0 -23 9.5t-23 9.5q-3 0 -14 -8 t-13 -11q-36 4 -126 4q-6 0 -14.5 7.5t-14.5 7.5q-9 0 -25.5 -7.5t-25.5 -7.5q-5 0 -12 5t-12 5q-7 0 -42 -20l-44 -26q20 -38 86 -121q-10 -1 -13 4l-6 -8l14 -13l-5 -27h-18q-1 4 -11 20q-8 12 -8 23h-3q-20 0 -81 57.5t-61 74.5q0 96 135 96q13 0 37.5 -1t36.5 -1 q6 0 7.5 -7.5t7.5 -7.5q4 0 14 7.5t19 7.5q16 0 49 -4.5t49 -4.5q20 0 59.5 2t58.5 2q6 0 19.5 -7.5t19.5 -7.5q37 0 57 5q3 1 15 6q9 4 14 4q6 0 14.5 -7.5t14.5 -7.5q38 0 59 28t42 57q16 3 49 24t47 21t54 -27.5t40 -39.5zM-190 395l-14 -6v7l12 6zM-330 360 q-33 -26 -51 -25h-1q8 10 25 24q9 -1 27 1zM-392 326q-14 -5 -41 -22q-11 11 -11 18q9 0 26.5 2t25.5 2zM554 34q-16 -62 -28 -62q-7 0 -8 3t-3 3q-11 -38 -43 -112t-43 -114q-4 0 -12.5 2t-13.5 2q-18 0 -20 -19q-4 -24 -16 -32l4 -17q8 7 25 19q-23 -36 -40 -62 q-12 -15 -25 -31q-14 -19 -17 -35h-7q-8 0 -15 -8q1 -1 1 -3q0 -15 -33.5 -51.5t-51.5 -47.5q-23 -14 -28 -18q-13 -10 -21 -27q-4 5 -17 5q-17 0 -21.5 -16.5t-10.5 -16.5q-5 0 -5.5 2t-6.5 2q-13 0 -20 -18q-6 7 -16 18q-35 -34 -78 -34h-23q-17 1 -29 1q-5 0 -23.5 -10 t-24.5 -10t-7 6t-3 7q-22 4 -67 9q1 6 -6.5 11.5t-14.5 5.5q-5 0 -7 -2.5t-8 -2.5q-9 0 -70 28q-56 26 -73 36q-11 7 -29 27q-21 23 -17 31q-47 21 -91 92q-32 59 -65 117q5 -4 12 -4q4 0 7 2q-11 10 -23 31q-15 23 -15 33q0 3 1.5 8.5t1.5 8.5l-1 5q-5 2 -16 9q-1 7 -12 44 q-8 28 -8 44q0 6 8.5 13t10.5 11q-29 39 -29 67l11 42q9 38 9 75v19q2 0 8 1h8q11 0 62 85q3 6 37 29q-8 5 -24 17v22q9 1 10 10q7 0 16 -9q12 7 28 24q10 -6 32 -11q-34 -22 -55 -59q-24 -35 -48 -71q-29 -45 -27 -79q-4 -3 -4 -33q0 -31 3 -150h-4q-10 1 -19 -8 q13 -17 29 -18q-4 -7 -14 -20q14 -8 25 -53l14 -62q9 -22 45 -79q43 -69 51 -83q30 -20 85.5 -63t84.5 -62l9 10q128 -38 154 -38q19 0 55.5 2t55.5 2q9 0 9 12q31 11 95 28q24 38 61 54q14 7 25 20t21 25q20 14 54 48q1 1 22 37q15 25 26 30q3 12 25 43t22 42q0 1 -2 6 q3 0 8 -1.5t9 -1.5q18 0 18 22q0 14 -16 16q12 5 35 9q6 6 7 9q0 2 -4 4.5t-4 8.5q0 41 41 78q4 18 8.5 36.5t22.5 21.5q-6 9 -15 22q0 13 15 13q7 0 9.5 6.5t3.5 7.5q0 -1 18 -19q13 12 40 33zM-42 -655l-22 6v8l22 -6v-8zM690 395l-3 7l-11 -6v-7z" />
<glyph unicode="K" horiz-adv-x="1082" d="M1133 792q0 -13 -25.5 -49t-36.5 -36q-30 0 -49 -18q-58 -61 -181 -176q-15 -16 -47 -41h-15q-23 0 -29 -29q-32 -15 -50 -47q-47 -11 -83 -60q-44 -24 -131 -69q7 -70 109 -160q83 -73 169 -115q22 -11 95 -35q78 -26 94 -26q8 0 24.5 1t25.5 1q57 0 86 -19q2 1 19 13 l8 -11q-13 -5 -18 -23q-26 8 -46 8q-23 0 -68 -8.5t-67 -8.5q-12 0 -38 11t-32 20q-6 -1 -6 -9q-19 12 -58 33q-32 9 -94 32q-8 4 -40 35q-26 24 -47 21l9 9q-17 10 -56 25q1 1 13 10q-21 12 -59 42l-70 82q-56 62 -75 62q-30 0 -55 -105q-16 -8 -34 -71l-14 9q-4 -4 -11 -4 q0 -21 5 -28q-13 -10 -36 -44q-17 -46 -86 -106q-72 -62 -118 -62q-12 0 -37 -2.5t-37 -2.5q-53 0 -66 18q-20 -5 -16 -5q-8 0 -14 12q-34 2 -81 41q-6 5 -69 65q-1 6 8 6v27q-22 8 -38 8q-5 22 -37 100q-28 68 -28 97q0 21 10 58q12 45 26 45q5 0 6.5 -2.5t5.5 -2.5 q-2 17 -2 10q0 2 2 3q5 11 36 42t40 31q6 0 11 -4t7 -5l6 8l-3 4q64 18 92 18q6 0 7 -4t6 -4q7 0 23 17q-2 -4 -2 -9q0 -4 1 -10.5t2 -9.5q-30 -12 -79 -15q-8 -8 -17.5 -16t-20.5 -6q-10 -17 -42 -40.5t-33 -24.5q-22 -48 -22 -96q0 -100 89.5 -198t188.5 -98q41 0 105 19 q11 3 53 45q14 8 40 26q22 25 68 71q-8 14 -8 28q5 0 10 -4q11 6 21 37q10 27 19 27t11 -4l7 7q-4 11 -26 16q13 3 39 10q-4 7 -8 22q4 -4 17 -9l12 37q-6 3 -17 14q13 0 27 32q19 42 21 45l-5 8q34 58 95 176q8 18 35 50.5t35 52.5q12 30 66 98q0 13 -24 14q19 -1 -34 -1 q-6 0 -17 5t-17 5q-9 0 -26 -4t-26 -4q-28 0 -86 4t-87 4q-4 0 -34 -8.5t-31.5 -10t-1.5 -2.5q0 2 2 -8q-17 -6 -33 -12q-18 -9 -18 -27t37 -63q32 -38 53 -55q-13 -28 -30 -28q-12 0 -24 12l-21 21q-18 11 -36 21q-25 16 -29 26q-2 4 -25 47q-15 26 -15 46q0 57 79 81 q52 16 127 16q5 0 5 -3q-1 0 -1 -1q0 -5 4 -5q9 0 26 2.5t26 2.5q13 0 35 -11t31 -11q7 0 20.5 4.5t20.5 4.5q5 0 13.5 -6.5t14.5 -6.5q5 0 7.5 4t7.5 4q6 0 20.5 -6t22.5 -6q25 0 150 27q50 11 49 11q4 0 24 -12q24 -15 25 -16q-5 -2 -13 -25.5t-28 -23.5q-4 0 -4 1v1 q0 2 -4 2q-8 0 -37.5 -21.5t-38.5 -30.5q-74 -80 -147 -212q-3 -7 -31 -46q-19 -27 -25 -49q-7 -3 -19 -15q19 -20 30 -20t59 15q45 14 58 20q6 4 27 28q18 3 70 39q58 39 78 47q-1 7 -9 7q24 10 58 38.5t41 49.5h6q27 -1 31 3l22 22q0 3 -13 12q17 3 39.5 36t48.5 43 q6 -8 17 -21q9 22 21 70q27 28 54 57q42 44 56 44q15 0 31 -12t16 -27zM-34 426q-8 -15 -17 -15q-20 0 -67 19q3 2 8 2q8 0 16 -4q5 7 18 17q17 -21 42 -19z" />
<glyph unicode="L" horiz-adv-x="552" d="M476 176q-5 0 -5 1v1q0 3 -4 3q-5 0 -32 -19q-31 -23 -34 -25q-16 -8 -137 -61q-79 -33 -131 -81q-35 -32 -113 -73q-12 1 -25 17.5t-13 28.5q0 3 39 73q3 6 22 18q2 27 27 63q40 57 40 58q5 21 21 62q11 10 33 32q1 1 16 42q11 30 31 30q2 3 2 6t-1.5 9t-1.5 10 q0 5 21 44t19 60q28 4 40 20q-8 8 -18 9q15 9 20 29q1 18 3 36h15q4 4 6 23q1 13 17 13l8 -5q2 6 2 9q0 9 -12 15v20q23 40 36 80q6 25 11 50q9 28 37 28q18 0 36 -9q22 -11 22 -27q0 -24 -28 -63.5t-51 -55.5v-5q0 -9 -13 -33t-12 -33q-4 -7 -17.5 -17.5t-18.5 -18.5 q2 -7 2 -16q0 -19 -90 -194q-82 -157 -111 -206v-25q-1 0 -1 -1q0 -3 7 -2q6 0 69 20t73 25q122 58 223 103q38 18 112 45l26 6l-13 -20q-6 -10 -75.5 -54.5t-78.5 -44.5z" />
<glyph unicode="M" horiz-adv-x="1079" d="M1186 212q-7 -11 -20 -18q-17 -8 -22 -12q-10 -33 -48 -72l-64 -62q-50 -49 -69 -63q-42 -31 -84 -31q-57 0 -97 50q-38 47 -38 105q0 6 4.5 19t5.5 18q-4 12 -4 26q0 36 25 83q30 56 34 75q9 2 22 18t22 20q-6 6 -11 6q1 47 93 178q0 7 -6 12q-81 -77 -239 -235 q-16 -14 -43 -45q-8 -12 -27 -36q-9 -5 -29 -27q-39 -56 -82 -124q0 2 0 -7q0 -11 -18 -32q-23 -25 -26 -31q-10 -10 -21 -10q-4 0 -7 6t-8 6q-4 0 -4.5 -2t-4.5 -2q-7 0 -12 9.5t-5 16.5q0 17 35 65q42 57 47 68q7 4 10 26q4 26 11 34l14 6q21 34 42 69q29 49 31 68l28 48 q15 29 13 53q39 64 39 67q0 6 -6 17q-2 -2 -119 -108q-71 -65 -123 -103q-4 -3 -2 -13q-47 -47 -143 -134q-25 -15 -68 -50q0 -8 -5 -22q-6 -9 -25 -22t-25 -23q-27 -49 -86 -142q1 -65 -59 -65q-32 0 -32 36q0 33 32 79q28 40 61 64q5 11 56 86q36 52 39 94q11 5 23 41 q11 32 37 34v4q0 4 -8 4t-11 -3q8 16 21 58q2 15 18 30q4 15 15 26v3q0 2 7 12.5t8 14.5q3 20 10 59q12 10 33 30q-8 10 -8 18t9 19.5t10 18.5q-3 2 -20 8t-21 6q-6 0 -33 -11.5t-33 -11.5q-4 0 -11 2t-11 2q-6 0 -59 -30t-59 -37q-15 -17 -15 -45q0 -14 7 -21 q-7 -9 -14.5 -16.5t-20.5 -7.5q-19 0 -35 23t-16 42q0 26 28 56q25 26 52 38q76 34 124 38q103 8 176 36q9 3 36 22q15 11 49 11q9 0 41 -24q-8 -13 -16 -43q-16 3 -10 3q-7 0 -43 -26q-30 -22 -43 -34q-8 -10 -26 -29q-12 -51 -48 -124q-56 -111 -60 -119q-11 -5 -31 -18 q0 -1 11 -6q6 -3 6 -9t-6 -6l-9 4q0 1 -10 -61q2 -2 5 -2q35 0 31 24q3 2 29 22q22 17 27 17q4 0 8.5 -2t8.5 -2q2 2 2 6q0 6 -6 11q2 4 4 8.5t7 4.5q4 0 4 -1v-1q0 -2 4 -2q31 35 50 66q9 5 26 15q12 4 24 7q18 6 18 12q0 7 -4 14q19 4 39.5 35t27.5 31q5 0 5.5 -3.5 t4.5 -3.5q13 0 12 18l8 -3q23 21 75 88q6 9 8 9l18 -4q0 13 8 33q21 23 39 23q5 0 6 -1.5t3 -2.5q45 74 47 76q34 42 74 42q5 0 31 -29q-3 -15 -17 -42q-10 -13 -45 -39q-26 -19 -42 -51q-47 -91 -135 -276l5 -6q3 2 65 69q54 58 59 58q4 0 3.5 -1.5t3.5 -2.5q2 3 2 6 q0 5 -3 8q11 2 30 23.5t31 21.5q6 0 11 -3v6q0 6 -5 15q13 10 39 32l63 57q16 19 33 37q23 26 39 26q9 0 11 -4q6 4 7 17q2 1 34 35t42 34q14 0 28.5 -11.5t14.5 -25.5q0 -5 -6 -21t-7 -22q-31 -24 -88 -77q-8 -15 -25 -43q-17 -19 -46 -61q-31 -53 -62 -105 q-35 -63 -49 -112q-8 -31 -15 -31q-2 0 -4 1t-3 1q-2 0 -3 -1l1 -3q0 4 -7 -30q-1 -20 -3 -40q-2 -24 -17 -32q14 -77 23 -93q21 -36 82 -36q12 0 53.5 28t40.5 39q5 5 19 4q-1 12 26 32l38 26q7 9 22 27q11 7 31 23q13 5 37 20h18zM842 512l-2 5l-9 -5v-5z" />
<glyph unicode="N" horiz-adv-x="750" d="M964 186q-10 -18 -80 -93q-1 -4 7 -11q-25 -12 -62 -45q-44 -38 -61 -49q-46 -25 -139 -74q-7 0 -21.5 -4.5t-21.5 -4.5q-4 0 -7 2t-7 2q-5 0 -12.5 -6t-12.5 -6q-14 0 -38.5 12t-28.5 12q-5 0 -5.5 -2t-4.5 -2q-8 0 -56 41q-52 45 -52 130q0 21 17 88.5t26.5 89 t12.5 28.5q7 12 20 24q-3 5 -3 12q0 18 20.5 51t21.5 48q13 11 38 32v6q0 7 1 18.5t1 17.5h21q4 6 5 27.5t10 32.5l-6 6q-5 -7 -32 -10q-2 -2 -5 -13q-16 -5 -44.5 -32.5t-59.5 -35.5q-5 -26 -63 -78l-82 -70l-3 -16q-18 -14 -53 -65q-46 -69 -50 -74q0 -20 -17.5 -47 t-36.5 -34q8 -5 8 -12q0 -3 -27 -54t-31 -56q-14 -18 -37 -18q-15 0 -27 10t-12 24q0 11 29.5 59.5t38.5 52.5q7 17 15 55q21 14 25 27q4 18 9 36q29 25 53 75q22 47 28 88q-1 -7 3 -12q13 18 25 49q17 44 20 51q14 3 24 29q6 20 13 40q14 5 18 31q7 33 9.5 37.5t20.5 23.5 q15 17 15 22q0 13 -7 27q-82 -41 -241 -133v-5q1 -14 -10 -31q-10 -13 -20 -27q-15 8 -33 8q-6 0 -14.5 18t-8.5 25q0 22 94 85q90 60 110 60q4 0 4 -1v-1q0 -2 4 -2q5 0 10.5 8.5t7.5 9.5q29 21 172 75l20 -14q14 -10 14 -16q0 -21 -31 -75q-22 -38 -45 -75q-5 -12 -15 -34 q-2 -2 -17 -13q-10 -42 -75 -149l6 -7q21 11 116 99q89 81 100 81q5 0 6.5 -2t4.5 -3q7 19 65 62q29 28 89 83q12 10 28 10q7 0 20 -4t20 -4q9 -5 9 -12q0 -41 -48 -104q-68 -91 -72 -98q-29 -47 -78 -142q-17 -9 -24 -15q-10 -9 -11 -24l7 4l10 -5q-16 -18 -40.5 -103.5 t-24.5 -115.5q0 -142 149 -142q19 0 56 13q34 12 52 24q33 23 98 67q13 0 37 10q29 24 78 75q28 5 71 47z" />
<glyph unicode="O" horiz-adv-x="808" d="M854 432h-39q-23 0 -68 12.5t-69 12.5q-12 0 -20 -4q1 -15 -21 -51t-22 -44q0 -2 1 -4q-17 -17 -65 -95q-40 -64 -77 -83q-5 -16 -23 -44q-1 -2 -29 -19q-22 -13 -22 -23q-83 -65 -111 -82q-68 -40 -130 -40q-48 0 -90 28q-45 31 -51 77q-24 10 -24 72q0 16 10.5 47.5 t10.5 48.5q0 11 -4 17q6 4 17 13q-2 7 -13 7q5 9 14 15q13 8 15 11q-6 7 -12 7q7 12 43 81q25 48 50 76q24 30 50 62l27 32q34 44 57 67q13 7 37 22l-3 13q25 17 49 34q32 22 44 38q12 5 36 33q18 21 50 21q26 0 51 -5q4 -1 13.5 -10.5t15.5 -9.5q4 0 4 2v0q0 3 4 3 q93 -45 93 -89q21 1 26 -10q4 -6 4 -27t12 -26q0 -3 -12 -14q10 -14 10 -53q0 -24 -6 -42q37 -16 75 -33q44 -19 77 -22zM645 623q-13 -1 -28 31t-36 32q-21 6 -46.5 -0.5t-30.5 -54.5q-11 -34 53 -74l79 -40l1 17q-1 3 -1 6q0 9 9 18v65zM612 475q-155 63 -169 151 q0 6 1 12q-1 1 -8 5q-3 2 -3 8q0 3 12 38q-8 0 -20.5 -5.5t-16.5 -5.5q-5 0 -5 1l1 1q0 2 -5 2q-10 0 -57 -40q-52 -45 -62 -50q-29 -45 -67 -80q-1 -10 -18.5 -28.5t-27.5 -20.5q-4 -8 -13 -13q-2 -21 -25 -55q-30 -46 -34 -54t-11 -52q-4 -31 -27 -47v-130q0 -23 34 -58.5 t58 -35.5q3 0 9 2t10 2q47 0 175 92q1 -2 1 -4q0 -5 -1.5 -4.5t-1.5 -4.5q0 -2 1 -4q6 4 19 9q0 1 -12 10q2 4 7 9q5 2 14 8q11 11 23 22q16 15 26 13q38 54 112 163q4 -3 8 -3h2q-5 5 -5 11q0 9 15.5 22t17.5 17q9 16 19 44q12 38 24 53z" />
<glyph unicode="P" horiz-adv-x="754" d="M808 341l-168 -7q-9 -11 -13 -13t-13 -2q-9 1 -16 1.5t-12 0.5t-9.5 6t-9.5 6q-2 0 -6 -2.5t-9 -5.5q-5 -4 -11 -7q-3 -2 -15 -4t-25.5 -5t-25.5 -5.5t-15 -4.5q-23 -14 -44.5 -26t-39 -21.5t-29 -15t-14.5 -5.5q-4 0 -4 1v1q0 2 -4 2q-45 -24 -84 -40.5t-73 -26.5 q-15 -20 -27.5 -53t-23 -66.5t-18.5 -60.5t-13 -34q-14 -8 -59 -18q-18 25 -18 39l8 15.5t18.5 34.5t20 36t12.5 20q-1 1 -1 4t4.5 10.5t10 16.5t10 17.5t4.5 12.5q-6 7 -13 7q-5 0 -15 -8t-15 -8t-16.5 -1t-24 -1.5t-24 -1.5t-17.5 -1q-20 0 -27.5 14.5t-7.5 33.5 q0 8 17 23.5t39 30.5t43.5 26.5t29.5 11.5q3 0 10 -2t10 -2q27 10 45 18.5t30.5 18t20 21t13.5 26.5q3 9 5 15.5t2 11.5v2v4q19 22 33 56t14 63v8q11 12 25 14q8 29 14.5 44t15.5 21q1 15 23 60v11q0 38 20 87l-7 11q-41 -5 -81 -9t-74.5 -11.5t-61.5 -20.5t-43 -35 q1 -3 5 -7t8 -9t7.5 -13t3.5 -18v-8q-17 11 -45.5 26t-68.5 32q0 17 -8 25q3 11 9 18.5t18 13.5t33 12.5t54 15.5q60 16 85 16q4 0 4 -1q-2 -2 -2 -4t4 -3q5 0 5 6.5t5 6.5q7 0 21.5 -6.5t21.5 -6.5q4 0 9 6.5t10 6.5q4 0 4.5 -2.5t5.5 -2.5t6 4.5t6 4.5q9 0 27.5 4t27.5 4 q3 0 14.5 -3t24 -7t23.5 -7.5t14 -3.5q27 13 43 13q1 0 9.5 -3t18.5 -6.5t18.5 -7t10.5 -3.5q15 0 28.5 -0.5t31.5 -5.5t44.5 -15.5t67.5 -31.5q21 -11 38.5 -19.5t29.5 -20t18.5 -28t6.5 -43.5q0 -46 -13 -71t-45 -46q-2 -2 -12 -23q-4 1 -10.5 2t-14.5 3q1 -2 1 -6 q0 -9 -8.5 -21t-22.5 -24.5t-32.5 -25t-39.5 -21.5q3 -12 11 -14l212 -11zM719 614q0 79 -313 137q0 -16 -11.5 -48t-27.5 -65.5t-34 -62.5t-31 -39q0 -4 2.5 -10t2.5 -9q-1 0 -1 -1t-0.5 -2t-0.5 -2l-10 -22q-17 -39 -33 -70t-31 -38q-2 -11 -5 -27t-7 -38h22q30 0 53 12 l9 -8q8 8 20 8q4 0 11.5 -2t11.5 -2q1 0 10.5 3.5t21.5 7.5t21.5 8t10.5 4q14 3 28 4.5t29 2.5q11 11 16 11t5.5 -2t4.5 -2q2 0 12 7.5t23 16.5q14 11 33 25q9 0 9 -3v-1q2 7 7 12t10 8t9 4.5t3 1.5q26 29 81 74v7q-1 3 -1 7q0 5 2 9h-1q0 1 26 6q-5 5 -5 13q0 5 3 14t6 19 t6 19t3 13zM353 300q-30 -8 -60 -14.5t-54.5 -15.5t-41 -24t-19.5 -39q1 1 45 22q37 18 41 18t5 -2t5 -2q65 34 79 57zM131 247q-31 -17 -53.5 -31t-22.5 -23v-2q25 -9 34 -9q20 0 31 20t11 45z" />
<glyph unicode="Q" horiz-adv-x="729" d="M791 215q-7 -22 -14 -69q-34 -37 -92 -128q-8 -2 -24 -4q-2 -2 -2 -4q0 -6 7 -12h-2q-4 0 -8 3q-5 -5 -6 -11t-3 -10t-32.5 -21t-34.5 -35q-5 -4 -109 -79q-91 -66 -96 -66t-5 1l1 1q0 2 -5 2q-3 0 -21.5 -14.5t-26.5 -14.5q-11 0 -33.5 -4.5t-33.5 -4.5 q-35 0 -78.5 34.5t-46.5 68.5v13q0 12 1 36t1 36q0 25 -22 33t-43 16q-11 6 -26 30q-14 21 -23 24q-24 54 -24 65q0 14 7 33q8 25 9 33q-7 8 -7 10q0 13 17.5 40t29.5 35q-5 11 -21 15l6 11l4 -8q4 4 15 23q0 4 -3 6q-2 -2 -6.5 -8t-6.5 -8q20 27 51 87l5 -8q42 26 42 66 q21 17 28 37q36 16 86 73l74 88l4 -8q61 49 183 146h-1q-3 0 -5 -8q-3 4 -2 11v10q7 -5 18 -12l7 10q-4 6 -13 12q16 24 36 24q9 0 32.5 -11t29.5 -12q5 -7 25 -21t27 -21t10 -25q4 -26 5 -29q5 -4 14 -17q10 -27 10 -68q0 -36 -27 -80q2 -6 2 -12q0 -29 -18 -31q0 -2 9 -11 q-23 -47 -66 -114q0 -27 -18 -50q-6 -8 -38 -38q0 -4 5 -7q-3 -1 -20 -29t-26 -32q-14 -34 -59 -75q-37 -31 -74 -63q-13 -12 -38 -25q-30 -16 -40 -23q-6 -9 -23 -23q-23 -7 -69 -23q-20 -27 -20 -41q0 -5 5.5 -12t5.5 -11q0 -5 -1 -14v-15q0 -24 24 -53t47 -29q31 0 68 21 l62 36q49 22 106 69q48 42 97 83q0 -11 7 -12q2 1 2 5q0 5 -4 14q14 9 43 18q4 4 4 9q0 6 -9 6q20 18 39 36q32 29 38 29q4 0 10.5 -2t9.5 -2q9 23 5 39q16 16 52 70zM641 597q0 7 -6 40t-8 38q-6 15 -48 20q-29 3 -58 7q-11 -21 -16 -21t-6.5 2t-6.5 2q-24 0 -55 -29.5 t-54 -31.5q-48 -55 -49 -56q-32 -32 -60 -40q-7 -18 -48 -56q-38 -34 -45 -68l-8 4q-9 0 -19 -19q-12 -23 -20 -28v-3q0 -14 -25.5 -42.5t-25.5 -31.5q0 -2 3 -8q0 -2 -2 -2h-4q-12 0 -22 -5q-1 6 -1 -28q0 -14 9 -24q-29 -29 -29 -35q0 -7 4.5 -10.5t4.5 -4.5 q4 -12 2.5 -36t2.5 -36q6 -20 33.5 -46.5t46.5 -26.5q30 0 32 30q3 39 16 51v6q0 18 19 38q15 16 30 31q2 9 7 25.5t35 44.5q27 25 46 36q-5 8 -5 15q0 12 12 18.5t24 6.5q25 0 36 -10q12 -15 23 -30q-7 -12 -26 -14q-24 -2 -26 -4q-34 -19 -68 -83q-27 -49 -53 -99 q-8 -10 -16 -21q-12 -16 -12 -22q0 -10 5 -10q3 0 23 10q50 23 113.5 73.5t92.5 91.5q6 2 17 2q-3 6 -3 12q0 16 27 42q34 32 38 38q2 15 18 35q20 25 22.5 33.5t10.5 30.5q3 1 26.5 20t24.5 21q-4 2 -8 2q-3 0 -18 -5v23q17 8 19 23.5t4 31.5q1 6 14 42q10 30 10 40z M160 -50h-6l-5 -14l6 -2z" />
<glyph unicode="R" horiz-adv-x="932" d="M1032 -140q-24 -24 -42 -24q-4 0 -9 2t-8 2q-10 0 -54.5 -25.5t-71.5 -25.5q-5 0 -16.5 6.5t-17.5 6.5q-5 0 -9.5 -6.5t-9.5 -6.5q-92 0 -110 30l-12 -13q-138 66 -190 134l5 17q-5 3 -11 3t-23 -4l-3 7q0 3 2 11q-25 11 -25 22l5 5q-1 6 -21 7q-77 79 -115 111 q-83 71 -132 71q-27 0 -38 -25l-9 8q-12 -4 -12 -24q0 -10 3 -15q-7 -14 -7 -20q0 -3 3 -5.5t3 -5.5v-27q-8 -3 -26 -12q1 -2 10 -14q7 -8 7 -15v-53q-17 -9 -27 -9q-5 0 -9 4t-9 4t-11 -5q-9 -7 -10 -8q-19 19 -19 37q0 7 11 25.5t13 30.5q13 16 24 57.5t23 57.5 q30 141 77 243q1 7 -11 11q10 10 28 32q3 5 13 38q0 4 -3 7t-3 6q14 18 27 26v3q1 4 -0.5 10.5t-1.5 9.5q0 10 22.5 48.5t22.5 63.5q0 13 5 21q-5 7 -10 7q-14 0 -85 -27.5t-82 -27.5q-4 -1 -4 1v1q0 2 -4 2q-20 0 -56.5 -23.5t-46.5 -23.5q-5 0 -14.5 -4t-14.5 -5v-15 q0 -5 -5 -12t-5 -14q0 -6 3 -12q-9 -11 -15 -11q-5 0 -5.5 4.5t-4.5 4.5q-5 0 -8 -2t-7 -2q-18 0 -46.5 21t-28.5 38q0 19 56 35q37 9 73 17q30 15 90 39q75 25 101 25q3 0 8.5 -2.5t8.5 -2.5q5 0 13 7t10 8q11 7 39.5 17.5t37.5 10.5q5 0 5 -1l-1 -1q0 -2 5 -2q14 0 24 38 t25 38q18 0 39 -19t31 -19q44 0 110 15q49 11 54 11t11 -4.5t11 -4.5q17 0 52 4.5t52 4.5q47 0 133 -24q104 -27 104 -57q0 -11 -18.5 -38t-28.5 -34q-16 -14 -49 -42q-13 -10 -89 -50q-12 -6 -22 -27q-20 -7 -94 -59q-69 -49 -72 -49q-5 0 -5 1q1 0 1 1q0 2 -5 2t-32 -21 q-17 -13 -34 -27q-12 -19 -70 -47q-4 -2 -15 -15t-15 -13q-5 0 -7.5 4t-7.5 4t-9.5 -6.5t-9.5 -6.5t-9 5q-2 -3 -4 -12q-42 -25 -62 -46l302 -316q3 -3 33 -23q128 -81 196 -81q21 0 64 4t64 4q6 0 39 15t40 15q5 0 12 -6.5t11 -6.5t8.5 1.5t6.5 1.5zM823 727q-33 11 -67 22 q-53 17 -61 17q-5 0 -11.5 -4.5t-11.5 -4.5t-11 4.5t-10 4.5q-172 0 -308 -45q-1 -4 -13 -23q-5 4 -14 3l1 -4q1 -30 -27 -87q-30 -61 -56 -66q-11 -13 -20 -55q12 -1 13 -10h-18q9 -8 9 -20q0 -24 -29 -28q-10 -15 -15 -46q-5 -36 -10 -48q-1 -2 -1 -8v-11q1 -8 1 -12 q0 -20 -18 -23v-15q4 -6 15 -14q11 8 37.5 15.5t38.5 15.5q20 14 56 45q19 3 56.5 27.5t38.5 24.5q5 0 5 -1q-1 0 -1 -1q0 -2 5 -2q14 0 41 26q-2 -6 -2 12q1 2 3.5 3t14 5.5t15.5 4.5q5 0 5 -1l-1 -1q0 -2 5 -2t40 25q32 24 39 32q14 17 28.5 34.5t38.5 24.5q13 12 104 81 q65 49 95 90v15z" />
<glyph unicode="S" horiz-adv-x="729" d="M805 350q-13 -3 -69 -25q-52 -21 -56 -21q-3 0 -8.5 2t-9.5 2q-5 0 -22 -11t-22 -11t-7 2t-7 2t-5.5 -4.5t-5.5 -4.5q-7 0 -9 6.5t-2 7.5q-14 -14 -12 -22q-17 4 -50 4h-9q-2 -2 -2 -5q0 -2 1 -6.5t2 -5.5q-28 -8 -56 -17q-31 -9 -52 -27q0 -11 7 -34q6 5 4 18 q0 -8 20 -28v-123q-9 -10 -9 -41q0 -26 -27 -27q1 -10 1 -15q0 -16 -6 -26q-3 0 -9 2t-10 2q-12 0 -15 -20q-3 -24 -8 -29q-10 -9 -36 -22.5t-39 -13.5t-42.5 -4.5t-43.5 -4.5q-56 0 -117 32q-70 37 -70 87q0 6 5 9t5 4q-1 4 -1 9q0 49 42 111q3 -5 10 -14q11 5 21.5 11 t10.5 19q0 6 -2 14q2 -1 5 -1q7 0 9 10q13 11 45 19t44 19q41 32 82 50q13 6 88 33q0 6 -13 6v11q0 22 9 40q-14 12 -20 52q-2 29 -5 58q0 3 -3.5 14.5t-3.5 14.5v131q0 17 10.5 51.5t10.5 52.5q10 23 34 68q4 39 61 81q71 52 83 68q73 19 107 19q112 0 112 -99 q0 -36 -88.5 -130.5t-122.5 -94.5q-42 0 -40 0q0 10 -5 16q26 26 119 111q18 15 50 47q2 2 2 6q0 7 -4 16q22 36 22 44q0 25 -36 25q-5 0 -15.5 -4.5t-16.5 -4.5q-17 0 -38 14q-21 -23 -29 -23q-5 0 -7 2.5t-7 2.5q-74 -90 -94 -90q-5 0 -5.5 2t-5.5 2q-4 0 -13 -13 q-5 -8 -11 -17q-1 -2 -1 -15q0 -17 -8 -29q1 -7 1 -15q0 -82 -42 -102q27 -27 27 -36q0 -22 -18 -36q27 -26 27 -50q0 -6 -3 -18t-3 -18q0 -11 7 -21l-1 -5q0 -12 11 -58q1 -21 5 -61q85 31 121 31q8 0 26 -9q2 2 2 5q0 2 -1.5 6.5t-1.5 6.5q11 0 35 11.5t30 11.5 q5 0 6.5 -4.5t6.5 -4.5q6 0 22.5 9t22.5 9q5 0 6.5 -4.5t6.5 -4.5q2 0 11.5 7.5t14.5 8.5q21 7 54 10q28 3 56 5zM386 135q-4 7 -24 74q-114 -32 -211 -96q-17 -25 -35 -49q-22 -34 -22 -52q0 -13 6 -34q7 -27 8 -33q16 -4 49 -24q28 -17 49 -17q41 0 99 50.5t66 90.5 q1 4 3 47q2 29 12 43z" />
<glyph unicode="T" horiz-adv-x="691" d="M1003 802q-1 -6 -15 -14v-3q0 -16 -25 -42q-29 -30 -33 -41q-16 3 -31 6q-18 5 -18 21q0 7 5 21t5 21q-13 0 -39 -4.5t-39 -4.5q-5 0 -8.5 4t-7.5 4q-2 0 -22.5 -8t-30.5 -8h-44q-4 0 -4.5 -4t-5.5 -4q-4 1 -4 3v1q0 4 -4 4q-5 0 -11 -4q-10 -7 -11 -8l-22 7q4 0 11 -1.5 t10 -1.5q4 4 11 18h1q0 2 -7 2q-44 0 -38 -27q-7 0 -20 -4.5t-20 -4.5q-5 0 -7 4t-7 4q-6 0 -17 -6t-17 -6q-4 0 -9.5 2t-8.5 2q-6 0 -19 -6t-19 -6q-5 0 -5.5 2t-4.5 2q-6 0 -14.5 -12t-13.5 -12t-5.5 2t-4.5 2q-6 0 -10 -14q-19 -13 -23 -40q-6 -38 -9 -44.5t-22 -29.5 q-16 -18 -16 -28q0 -7 6 -14q-33 -101 -40 -124q-21 -70 -32 -126q-5 -3 -14 -11q1 -6 1 -12q0 -20 -8 -51q-11 -41 -13 -49q-3 -51 -5 -102q-8 -77 -42 -77q-3 0 -8 2t-8 2q-6 0 -8 -5l-3 -10q-9 0 -22 15t-13 25q0 23 20 87q22 68 36 76q0 4 -6 9t-6 10q0 6 15 31t21 30 q-8 17 -8 21q0 26 31 113q33 92 49 94l-8 7v37l20 36q13 25 13 37q0 7 -4 14q21 51 32 92q-21 0 -61 5q7 5 7 9l-2 5q-17 -6 -18 -19q-15 7 -27 7q-6 0 -6 -6q-11 -1 -33.5 -3.5t-34.5 -2.5q-4 0 -13 2t-13 2t-14.5 -9t-15.5 -10q-18 -2 -54 -15q8 -8 8 -18q0 -18 -14 -32 q-25 20 -49 39q-34 28 -34 47q0 32 128 40q44 3 164 3q66 0 95 12q6 3 8 17q2 11 4 21q1 7 19 14q15 8 24 8q6 0 21.5 -8.5t19 -13.5t3.5 -28q2 -6 16 -6q16 0 48 7.5t48 7.5q6 1 5 -1v-4q0 -2 1 -3q5 4 12 11q87 12 175 24q103 14 176 14q17 0 60 -17zM541 739q0 11 -11 11 q-4 0 -10.5 -2.5t-9.5 -2.5q11 -1 31 -6z" />
<glyph unicode="U" horiz-adv-x="792" d="M881 224q-10 -23 -47 -62t-48 -65q-33 -5 -28 -24l-14 4q-12 -19 -44.5 -49.5t-44.5 -49.5q-10 -2 -46 -24t-52 -22q-4 0 -12.5 4t-13.5 4q-42 0 -55 38q-8 21 -8 72l16 61q37 140 76 213q-1 16 11 36.5t27 27.5v11q-4 6 -16 6q-23 0 -49 -32q-17 -25 -35 -50 q-28 -33 -78 -82q-62 -62 -79 -80q-18 4 -15 4q-5 0 -19 -27q-3 -7 -37.5 -30t-41.5 -38h-5q-17 1 -18 -17l-12 3q-75 -64 -105 -64q-6 0 -17 4t-17 4q-4 0 -7 -4t-7 -4q-18 0 -33 35q-12 30 -12 52q0 35 20 95.5t42 88.5q-1 3 -1 5q0 27 23 36q-2 3 -7 6q2 9 17 29 q15 17 15 36t9 36q17 30 46 101q28 67 49 101q15 25 15 62l-6 7q-30 -6 -60 -13q-38 -10 -54 -26q4 -14 4 -13q0 -4 -5 -4q-3 0 -5.5 2t-7.5 2q-3 0 -7 -4t-8 -4q-5 0 -16 8t-16 8q-4 0 -5 -2t-5 -2q-9 0 -19.5 16t-10.5 26q0 17 39 31q33 11 55 11q5 0 7 -4t6 -4t17.5 8 t19.5 8q3 0 3 -1v-1q0 -2 4 -2q19 0 92.5 28t84.5 28q4 0 17 -7q17 -9 19 -10q-7 -35 -31.5 -67t-25.5 -40q-4 3 -9 3q-12 0 -28 -29q-18 -33 -25 -38l-130 -304q-52 -123 -52 -175q0 -55 17 -55q25 0 94 46q45 33 91 65q12 6 32 19q4 3 6 13q34 20 69 59q46 53 60 65t71 74 q44 47 76 65q4 9 16.5 24.5t19.5 15.5q4 0 4 -2h-1q0 -2 4 -2q11 0 50 62l10 8q1 9 16 38q17 33 19 42q15 58 28 81q24 45 63 45q11 0 27.5 -21t16.5 -33q0 -23 -19 -49q-16 -64 -125 -157q-5 -1 -5.5 1t-2.5 3q-1 -1 -5 -21q-3 -15 -6 -15q-6 0 -5 2l-1 2q-1 -8 -5 -23 q-8 -6 -27 -17q1 -2 6 -7t5 -10q0 -10 -26 -47q-29 -40 -32 -55q-6 -24 -48 -134q-30 -82 -30 -137q0 -68 24 -68q4 0 51 23q53 24 59 26q30 33 93 96q21 13 47 33q1 1 2 8t6 7q4 0 4 -1l-1 -1q0 -2 4 -2t25 22t27 25h12zM588 450l-3 5l-27 -26l3 -5zM525 386l-4 4l-8 -9 l3 -5z" />
<glyph unicode="V" horiz-adv-x="834" d="M358 304l-5 -14l6 -2l5 16h-6zM965 877q-33 -61 -100 -117q-30 -25 -125 -91q-4 -28 -25 -41t-41 -25q-12 -10 -26 -32q-21 -35 -22 -36q-2 -4 -28 -22q-19 -14 -17 -26h-3q-15 0 -31 -23q-12 -18 -23 -36q-4 -5 -35 -30q-23 -19 -27 -36q-26 -13 -94 -94 q-93 -111 -160 -168q-2 -19 -18 -51q-23 -44 -25 -50q-9 0 -18 -26q-7 0 -21.5 -4.5t-21.5 -4.5q-11 0 -21.5 20t-10.5 33q0 15 15.5 73.5t15.5 81.5q0 3 -1 9v9q0 44 10 107q9 54 18 107q-3 3 -10 4q1 6 6 19t5 21q0 5 -2 12.5t-2 12.5q7 4 16 19t9 22q0 5 -8.5 12t-8.5 13 q0 4 9.5 28.5t9.5 38.5l9 9q-5 11 -5 22q0 15 13.5 45t14.5 46q-17 15 -38 15q-4 0 -11.5 -6t-13.5 -6q-5 0 -13 4t-12 4q-6 0 -14.5 -3.5t-13 -4t-60.5 -0.5q-43 0 -56 -7q6 -6 13 -22q-15 2 -46 31q-21 20 -42 41v23q6 -1 15 -1q6 0 18.5 1t18.5 1q5 0 23 -8.5t24 -8.5 h138q49 0 114 25.5t70 25.5q25 0 50 -18q0 -17 -10 -36q-4 -7 -20 -14q-22 -10 -25 -12q-22 -17 -41 -46q-5 -8 -22 -55q-14 -38 -25 -41q3 -11 3 -24q0 -20 -12 -59t-12 -57q0 -8 1 -22t1 -21q0 -8 -1 -14q-8 -10 -9 -48q-1 -34 -17 -42q6 -13 6 -30q0 -11 -5 -31.5 t-5 -30.5q0 3 8 -74l2 -4q16 0 44.5 33t42.5 36q9 15 30 39q10 2 29 11q34 32 107 128q42 12 64 55q38 6 72.5 61t40.5 55q4 0 6 -2.5t6 -2.5q23 0 21 37q10 8 10 12q0 3 -3 9q13 8 31 35q13 -4 38 -21q20 10 20 25q0 11 -13 20q4 -1 14 -11q2 1 9 15q6 11 12 11q3 0 4 -1 l11 12q2 10 -12 10q8 9 9 20h15q1 -6 7 -12q20 12 57 40q-3 5 -11 14l-14 -2l29 15q5 0 7.5 -4t7.5 -4q11 0 17 19q4 12 38.5 29.5t34.5 37.5q0 6 -3 14q3 0 20 -9zM188 588q-7 -1 -19 -6l6 -41q4 16 13 47zM175 515h-7l-5 -19h7z" />
<glyph unicode="W" horiz-adv-x="988" d="M1072 856q0 -26 -80 -135q-52 -69 -103 -138q-85 -137 -151 -198q0 -1 2 -4.5t2 -8.5q0 -11 -19.5 -26t-19.5 -27q0 -5 2 -10q-19 -8 -39 -37q-16 -24 -31 -48q-30 -42 -66 -89q-19 -39 -39 -78q-29 -60 -52 -60h-22q-33 0 -33 51q0 42 13 125q14 93 28 118q7 12 7 16 t-3.5 9t-3.5 6q0 13 23 45q1 30 4 43q6 27 21 33q-8 15 -8 30q0 11 21 68q18 49 27 71l-10 6q-15 -12 -49 -31q-2 -6 0 -15q-87 -83 -135 -140q-13 -18 -41 -54q-21 -25 -67 -53q1 -3 1 -7q0 -27 -45 -82q-32 -38 -65 -76q0 -7 8 -7q-34 -39 -54 -117.5t-35 -98.5 q-2 0 -5 -2t-8 -2t-5 2l1 2q0 4 -4 4q-2 0 -25 -12q-22 32 -22 42q0 27 21 80t21 76q6 10 13 46q6 29 34 56q-1 3 -10 15q-6 9 -6 15t4.5 16.5t4.5 15.5q3 -3 12 -8q23 70 23 87q0 14 -16 11q18 29 30 48q7 -5 17 -17q1 6 9 15q-10 18 -22 18q-5 0 -7.5 -4t-4.5 -8 q-6 -1 -6 10q0 7 14 21t14 25l-1 5l-8 5q2 14 29 61q22 40 18 78l8 -8q6 16 43 99v23q-5 2 -14 7q-15 -13 -88 -33q-58 -16 -74 -58q-2 -3 -2 -9t3 -10q4 -7 4 -9q-3 -2 -14 -2q-7 0 -19.5 2t-20.5 2t-20.5 18t-12.5 29q0 45 72 75q26 12 111 32q111 28 164 28q23 0 48 -21 q0 -25 -22 -44q-36 -29 -38 -31q-27 -36 -100 -168q3 -4 3 -9q0 -8 -9.5 -19.5t-9.5 -16.5q-5 -31 -18 -92q-11 -24 -27 -73q1 1 1 -30q0 -9 -19 -73q16 16 29 16q6 0 9 -2t4 -2q14 52 88 92q-1 5 -20 23q8 9 9 18q5 0 14.5 -2t14.5 -2l7 7q1 10 -16 10q6 25 42 49t44 54 q4 12 32.5 26.5t31.5 29.5q6 1 27 13v4q0 2 -2 5q-3 -3 -6 -3l-7 1q24 1 38.5 15t28.5 30q-1 6 -12 6q6 6 65 52q9 15 25 39q10 14 44 43q4 2 15 2q19 0 39.5 -8.5t20.5 -25.5q0 -3 -3 -12t-1 -14q-4 4 -12 8v-18q0 -25 -35 -54q-3 -12 -14 -28q-14 -20 -17 -28 q-5 -12 -27 -101q-31 -3 -32 -30l6 -11q2 2 13 24q-2 -15 -43 -169q-16 -59 -16 -66v-48l6 -7q30 24 35 29q20 19 25 35q2 -2 6 -2q3 0 9 1q-1 4 -1 9q0 19 15.5 36t34.5 12q2 3 21 32q12 18 12 34q0 5 -1 11h37l7 7q0 3 -16 10v13q0 6 11.5 21.5t13.5 20.5q2 0 6.5 -1.5 t8.5 -1.5q12 0 12 7q0 2 -1 6.5t-1 6.5q0 1 1 3q11 8 21 21q12 17 8 27h5q6 1 9 -3q9 7 25 38q5 8 53 59q35 37 32 67q9 12 29 50q17 32 34 47q-1 12 19 29q14 13 28 25q5 5 7 17.5t6 17.5q17 9 25 9q10 0 18 -5q0 -2 2 -6.5t2 -8.5zM105 609q0 -5 -2.5 -12t-2.5 -11 q-11 8 -31 17q8 19 18 19q5 0 18 -13zM731 422l-5 10h-6l5 -12z" />
<glyph unicode="X" horiz-adv-x="891" d="M967 300q-43 -38 -55 -58q-36 -10 -56 -22q0 -1 -36 -26q-30 -21 -32 -21q-5 0 -7.5 2t-4.5 2l-5 -7q-1 -4 0.5 -11t1.5 -9q-26 -6 -80 -27q-62 -23 -72 -37l-12 1q-8 0 -39 -23q-37 -26 -45 -29q-45 -21 -45 -28t2 -13q-9 0 -27.5 -4t-27.5 -4q-20 0 -24 29q-1 5 -1 43 q0 -9 -4 49q-14 24 -22 79q-7 51 -4 83q-2 0 -5.5 2t-7.5 2t-12.5 -12.5t-12.5 -14.5q-10 -2 -27 -10q-4 -10 -13 -27q-7 -9 -60 -46q-45 -32 -47 -50q-4 4 -11 4q-4 0 -24.5 -28t-25.5 -28q-4 0 -4 1v1q0 2 -4 2q-11 0 -29 -26q1 -5 1 -11q0 -25 -27 -63.5t-50 -38.5 q-6 0 -16.5 -2t-15.5 -2q-11 0 -24 32q0 13 15.5 30t29.5 17q1 1 1 3q0 1 -1 4.5t-1 6.5q0 10 31 37q41 34 42 35q15 18 47 44q10 1 28 3q4 3 11 21q5 14 16 14q4 0 6 -2t6 -2q13 0 13 11q0 4 -2 10.5t-3 9.5q3 0 6.5 -1.5t7.5 -1.5q37 47 98 76q7 22 23 36q4 3 36 22 q-9 19 -9 60q0 18 2 91q1 12 4 43q3 27 3 42q0 5 4.5 14t4.5 12v8q-1 5 -1 7q0 21 14 53t14 42q0 6 -8.5 11t-15.5 5q-48 0 -200 -21q-9 -8 -27 -15q-21 -8 -28 -14q29 -32 88 -96q-4 -1 -11 -3.5t-11 -2.5q-24 0 -93 59t-69 83q0 12 30 24q25 10 40 10q4 0 10 -4t10 -4 q10 0 30 6t30 6q6 0 18.5 -4t19.5 -4q10 0 30.5 6.5t31.5 6.5q73 1 158 21q10 2 31 15q18 11 34 11q12 0 45 -17q0 6 0 -9q0 -7 5 -16q-11 -17 -49 -49.5t-55 -39.5q-2 -5 -13 -58q-7 -31 -31 -53q12 -17 12 -33q0 -9 -8 -25.5t-8 -18.5q0 -14 6 -43.5t6 -45.5q3 -2 9 -2 q5 0 14.5 1.5t12.5 2.5t3 5q0 6 -3 12l30 18q21 12 21 24q0 3 -3 7q3 -1 7 -1q3 0 9 1t9 1l7 7q-2 9 -12 10q28 8 49 19q6 4 24 25q14 17 27 19q22 35 69 101q47 16 42 41q31 15 61 61q35 53 53 68l8 -8q3 4 9 4q18 0 29 -16t11 -34q0 -8 -16 -23t-24 -15q-4 0 -4.5 2 t-5.5 2q-13 0 -23 -19q-22 -38 -58 -67q-54 -43 -65 -55q-27 -28 -81 -82l-4 1v1q0 2 -4 2q-13 0 -15 -26q-186 -113 -186 -194q0 -35 5 -61q0 -2 10 -13.5t10 -20.5q0 -10 -9 -18q18 -18 19 -26l-5 4q-2 -1 -2 -6t12.5 -22t14.5 -20h10q35 0 246 92l5 -2v-4q0 -1 1 -2 q88 64 93 64t5 -2h-1q0 -3 4 -2l50 35q4 -2 14 -3q28 21 80 66q3 -5 3 -15q0 -23 -9 -24zM432 247l-4 -3l-10 9l4 5zM419 357q-10 10 -10 19l-6 -19h16z" />
<glyph unicode="Y" horiz-adv-x="936" d="M1114 763l-13 -6v6l11 6zM632 255q10 11 10 21q7 -7 7 -21h-17zM603 154q2 0 2 -3q0 -5 -7 -32q-1 2 -11 39h6q6 0 10 -4zM595 105q-10 -26 -30.5 -76.5t-30.5 -76.5q-3 12 -15 15q15 20 37 70q21 47 39 68zM1159 851q-7 -10 -35 -33q1 -14 -4 -42q0 6 -9 14 q-21 -4 -15 -35q-16 -8 -34 -30q-14 -19 -29 -37q-44 -51 -118 -88q-11 -31 -68 -59q0 -8 -7 -23l-4 1q-18 0 -32 -21.5t-15 -40.5q-39 -3 -56 -28q-16 -29 -31 -57q-8 -11 -28 -27t-28 -27q-29 -43 -58 -108q-2 -15 -9 -45q-31 -85 -98 -252q-1 -3 -18 -28q-11 -17 -11 -30 q0 -5 5 -9l11 -7q21 11 32 46q13 42 23 53q-9 -18 -7 -28q-9 -11 -23 -45q-12 -30 -27 -43v-3q0 -3 1 -9.5t1 -9.5q0 -9 -9 -15q-7 1 -19 14q-23 -13 -25 -32l-4 -41q8 0 17 18q-19 -41 -31 -53q-5 -4 -14.5 -6t-12.5 -5q-20 -14 -24.5 -41.5t-18.5 -32.5q-5 -14 -9.5 -26.5 t-16.5 -26.5q-19 -21 -93 -82q-79 -64 -92 -64q-4 0 -9 2t-9 2t-27 -12t-30 -14q-1 -1 0 -23q-2 1 -7.5 5t-12.5 4t-55 -24l-60 -30l-11 9q-10 -2 -31 -6l-28 -21q-7 18 -35 18t-42 -20.5t-37 -20.5q-4 0 -24 8.5t-23 9.5l-15 -13q-9 22 -24 22q-9 0 -35 -13q1 8 -4 13h-16 q-2 -1 -2 -3q0 -1 3 -4.5t3 -5.5q-1 1 -30 1l9 10q-9 11 -44 18q-44 8 -51 11l-8 -3q6 3 17 10q-6 12 -34.5 24t-43.5 11q1 3 1 8q0 18 -11 37q-14 21 -31 21q-5 1 -5 -1q1 0 1 -1q0 -2 -5 -2q-13 0 -40.5 37.5t-45.5 40.5q-9 16 -19 31q-15 24 -23 23l13 14q-7 5 -16 5 q-5 0 -10 -2v9q0 16 4 24q-9 6 -27 13q-1 4 4 10q-21 16 -66.5 109.5t-45.5 120.5q0 5 3.5 9t1.5 6q1 -2 4 -2q7 0 27 10v4q0 6 -9 6q-5 0 -5 -2q2 -2 2 -4t-4 -3q-5 0 -5 2q1 2 1 4t-1 3l-9 -9l-20 20q10 15 10 38h18l4 7l-7 7l-10 -8q0 8 8 16q-2 7 -14 7v60q28 41 33 49 q23 30 39 42q0 3 -2 8t-2 9q0 8 7.5 16.5t14.5 8.5q5 0 13.5 -2.5t12.5 -2.5q0 -11 -5 -18q-10 8 -19 8l-6 -1q5 -6 22 -13q-49 -95 -49 -158q0 -36 13 -93q19 -77 20.5 -91.5t2.5 -29.5q2 -18 10.5 -28t19 -20t10.5 -24q0 -12 -3 -25q6 -8 23.5 -20t22.5 -20 q192 -309 410 -309h110q6 0 32 18l12 -9l54 22q44 18 51 18q5 0 5.5 -2t5.5 -2q14 0 82.5 39.5t76.5 52.5q156 105 202 183q0 -9 4 -14q13 6 28 31q11 19 23 38q9 14 50 46l-13 13q19 26 53 120q29 80 63 107q-1 45 32 114q37 75 40 111q15 9 15 28q0 9 -8 23q-1 -7 -9 -13 l-4 1q-11 0 -34 -16t-36 -19q-10 -16 -9 -29q-64 -21 -126 -77q-16 -1 -32 -19q-12 -15 -24 -29q-26 -23 -99 -57q-77 -35 -106 -35q-7 0 -21 4.5t-22 4.5q-6 0 -9 -4t-5 -5q-42 28 -42 61q0 7 16 49q15 38 21 51q5 10 18 17q17 11 20 14q2 19 32 64q22 31 43 63 q15 31 50 90q11 7 28 27q7 25 26 75q9 17 33 48.5t33 49.5q-12 2 -31 2q-12 0 -35.5 -1.5t-34.5 -1.5q2 0 -36 14l-3 -5l5 -7q-9 -3 -40 -25t-37 -22q-2 0 -45 29q3 10 11 27q67 37 151 65q95 32 158 33q1 0 10 11q6 6 12 6q20 0 33 -15.5t13 -36.5q0 -24 -25 -55 q-30 -39 -35 -50q-3 0 -10 9q-12 -17 -36 -48q-16 -17 -31 -33q-20 -24 -19 -39q-35 -11 -58 -57q-6 -12 -30 -81q10 3 26 26q12 16 23 33q-52 -100 -138 -210q-9 -43 -28 -63v-43q3 -4 7 -4q39 0 86 21q30 14 69 40q32 21 34 21q5 0 7 -2.5t7 -2.5q7 0 58 39q45 34 59 47 q19 17 37 38q4 4 30 17q20 10 23 26q-1 -9 13 -9q11 0 19 15q6 12 6 24q23 13 53 41q43 39 49 45q0 20 8 58q2 7 15 20t16 24q-2 4 -2 10q0 20 22 57q18 28 36 55q-6 7 -6 14q0 10 21 30q25 23 28 28q-4 14 -4 25q0 23 27.5 38.5t28.5 30.5q23 12 24 35h21v15q-4 4 -17 4 l22 20q-2 -2 -2 -5q0 -4 2 -8l11 9q15 0 26 7q-8 3 -23 9q17 13 61 34q48 23 63 23q5 0 6.5 -4.5t6.5 -4.5q4 0 10.5 2t10.5 2q17 0 76 -24l-1 -5q0 -15 24 -45zM-718 251l-11 -16l-6 4l11 16zM-756 240q-8 -12 -5 -26q-3 0 -8.5 2t-8.5 2q-6 0 -16 -7l-15 -10q22 23 53 39z M1096 819q-3 10 -5 29q-59 9 -72 9q-6 0 -42 -15q-39 -16 -50 -18q-2 -2 -30 -51q-20 -36 -38 -35q-2 -4 -48 -48q-33 -33 -29 -55q-34 -29 -62 -97q-22 -56 -43 -111l11 -11q0 9 5 27q4 -5 11 -5q6 0 35 21q36 27 37 27q-6 1 -14 9q4 9 13 28q10 3 25 16t22 17 q7 -14 16 -13q0 7 -8 15q2 2 7.5 5.5t8.5 5.5q1 -1 1 -9q0 -4 5 -4q30 0 38 32q12 50 15 53v-7q0 -2 6 -2q2 0 44 54q1 0 2.5 -2t7.5 -2q4 0 47 41q5 4 6.5 20t10.5 24q13 13 48 19q4 21 19 33zM-869 77q-16 -8 -17 -20q4 -4 12 -6q0 21 5 26zM-878 -45q-4 0 -11 6l-11 -12 q16 0 22 6z" />
<glyph unicode="Z" horiz-adv-x="851" d="M951 280q-5 -5 -21 -13q0 -4 8 -11q-9 -15 -37.5 -34t-48.5 -25q-159 -51 -197 -51q-5 0 -8.5 4t-8.5 4q-172 -79 -203 -79q-4 0 -11.5 2.5t-11.5 2.5q-6 0 -27 -12.5t-27 -12.5q-89 0 -113 -29q-15 8 -30 8q-6 0 -19 -4t-22 -4q-5 0 -16 -6.5t-17 -6.5q-4 0 -9.5 2 t-9.5 2q-19 0 -48 -38.5t-33 -59.5q-1 -1 -22 -15q-16 -11 -23 -11q-5 0 -7.5 4t-7.5 4q-4 0 -5 -2t-5 -2q-6 0 -14.5 15.5t-8.5 22.5q0 19 10 53q12 38 25.5 44t39.5 23q14 14 29 28.5t33 16.5q1 9 -4 15q25 29 65 88q9 13 29 21q5 30 1 41q11 2 34 5q22 65 89 128 q10 8 29 25q10 9 4 28q68 81 206 242q2 -1 7.5 -2.5t9.5 -1.5q5 0 14 7.5t11 8.5l9 -8q22 11 22 27q0 9 -18 18q-7 -6 -8 -12q-4 2 -10 2q-8 0 -22.5 -3t-22.5 -3q-5 0 -7 4t-7 4t-14 -2t-13 -2q-8 0 -19.5 6t-17.5 6q-5 0 -14.5 -6t-14.5 -6q-32 0 -94 4t-93 4 q-4 0 -44 -18q-45 -21 -49 -22q5 -28 24 -59l38 -52q-5 -5 -5 -14q-25 7 -72 30q-10 7 -41 52.5t-31 56.5v42q10 7 30 16q20 6 61 6q5 0 6.5 -4.5t5.5 -4.5q13 0 38 6.5t37 6.5q5 0 18 -6.5t19 -6.5t14 7q13 0 55 3q35 3 56 3q4 0 17.5 -10.5t19.5 -10.5q5 0 8.5 4t7.5 4 q6 0 17 -4t17 -4q13 0 39 4t39 4q5 0 5.5 -4t5.5 -4q9 0 7 8l10 -8q12 0 37 -2t37 -2q5 0 18 11q9 8 19 16t33 15q29 9 37 13q75 36 119 36q14 0 31.5 -13.5t17.5 -27.5q0 -6 -30 -24t-38 -18q-5 0 -5.5 2t-4.5 2q-6 0 -24 -10t-24 -10q-5 0 -7.5 4t-7.5 4l-19 -11 q-12 -7 -53 -15q-46 -9 -55.5 -12.5t-19.5 -12.5q-13 -13 -15 -14q-22 -8 -56 -29q-20 -2 -42 -20.5t-26 -38.5q-10 2 -17 2q-8 0 -12 -3q-17 -14 -41 -45l-38 -48q-33 -1 -38 -71q-104 -80 -117 -153q-5 1 -9 1q-19 0 -25 -31q-4 -24 -7 -47q-14 -1 -22 -13.5t-5 -26.5 q-11 1 -23 -18q-8 -13 -16 -27q-11 -17 -31 -44q10 -11 25 -11q20 0 62.5 10.5t63.5 10.5q3 0 8 -2t9 -2q13 0 99 29q12 -13 19 -13q5 0 20 10.5t21 10.5q5 0 5.5 -2t4.5 -2q122 50 131 50q5 0 13.5 -6.5t13.5 -6.5t33 23t33 23q4 0 7.5 -2t7.5 -2q50 0 200 92q7 0 22 2 t23 2q19 0 20 -12z" />
<glyph unicode="a" horiz-adv-x="496" d="M588 149l-26 -26q-21 -21 -21 -25q0 -3 2 -8q-59 -23 -65 -50q-31 -9 -34 -10q-20 -9 -22 -25q-25 2 -18 2l-7 -1q3 -5 10 -10q-30 -5 -63 -5q-4 0 -10 5t-10 5q-3 0 -4 -1.5t-4 -1.5q-17 0 -34 23l-26 37q0 -7 0 41q0 25 -5 25q-7 0 -11 -19q-43 -33 -55 -33 q-1 -1 -1 -2q0 4 2 -10q-15 -5 -26 -17.5t-21.5 -23t-35.5 -23.5t-35 -21q-20 6 -41 11q-22 9 -22 33q0 25 29 60t52 35q0 5 -13 5q5 4 36 46q23 31 42 36l-10 9q29 15 29 29q0 3 -3 8l24 3q-1 0 -1 22q18 13 24 19q13 11 19 24q3 0 9 -1.5t9 -1.5q38 71 83 71q20 0 35 -11 t15 -31q0 -12 -13 -18q9 -7 26 -21q0 -12 -1 -34q-13 -13 -40 -36q-1 -9 -4 -25q-4 -4 -18 -42q-1 -4 -15 -33q-13 -24 -13 -29q0 -18 16.5 -47t32.5 -29q6 0 17 -1.5t17 -1.5q4 0 21 17.5t21 17.5q3 0 3.5 -1.5t3.5 -1.5q2 0 23.5 19t26.5 21.5t24 2.5t16 21q16 12 49 37 q3 -4 11 -8zM306 273q-8 9 -3 19q-5 -3 -15 1q-3 -5 -10 -13q-13 1 -28 -15q-10 -13 -21 -27q-4 0 -13 -2q-97 -122 -103.5 -122t-13.5 -7q2 -3 2 -7q0 -8 -12.5 -24.5t-11.5 -31.5q19 2 54 24t42 39h1q9 0 28 20q16 17 22 30l8 -7q26 10 26 16q0 5 -5 6t-5 2q1 2 35 47 q23 32 23 52z" />
<glyph unicode="b" horiz-adv-x="474" d="M631 283q-8 -2 -37 -19.5t-33 -17.5q-3 0 -6 1.5t-6 1.5q-4 0 -7 -8.5t-7 -8.5q-25 0 -36 7q-9 -8 -11 -17q-6 0 -20.5 -4t-21.5 -4q-3 0 -9 1.5t-9 1.5q-28 0 -53 -21q-36 -30 -45 -35q0 -1 2 -3t2 -6q0 -11 -49 -53.5t-52 -54.5l-8 3q-37 -27 -66 -33q-7 -13 -14 -19 q-5 -1 -23.5 -8.5t-25.5 -7.5q-3 0 -9 8q-3 -3 -7 -13q-32 -12 -46 -12q-66 0 -66 65q0 3 10.5 11.5t7.5 21.5q6 1 14 14q10 17 12 19q9 8 86 46.5t85 38.5q3 0 6.5 -1.5t5.5 -1.5q60 32 66 32q3 0 8 -2t8 -2q36 0 36 66q0 13 -17 30.5t-30 17.5q-17 0 -57 -13t-57 -24 q-3 -2 -29 -32q-19 -23 -35 -20q-2 -12 1 -24q-8 -3 -30 -17q-12 -9 -34 -9q-4 0 -11 16.5t-7 21.5t16 20q19 20 20 21q8 23 26 56v-3q0 -5 17 -4q0 2 1.5 7t1.5 9q-8 0 -22 3q4 6 8 13t8 7q5 0 6 -3.5t5 -3.5q8 0 13 13q6 19 7 21q-11 8 -11 16q0 9 6 14.5t6 10.5q0 4 -1 9 q2 3 11 1q3 2 3 7q0 6 -3 18q5 0 16.5 6.5t20.5 6.5q3 0 8 2v9q-2 1 -13 7t-11 10t2 8.5t2 7.5h11q4 4 1 13q5 9 25 32q4 29 7 35q4 10 25 26q3 23 15 50q15 36 31 36q6 0 19.5 -2t20.5 -2q-14 -61 -52 -102q-9 -9 -11 -17q-6 -27 -35.5 -78.5t-34.5 -74.5q-13 -7 -18 -14 v-6q0 -26 -26 -71q4 -6 12 -6q7 0 30 11q47 25 101 25q10 0 28.5 -7.5t28.5 -8.5q17 -17 25 -27q17 -20 19 -30q0 -16 1 -31q2 -21 14 -21q-1 0 137 43l11 -11h13q4 5 4 12q26 16 80 16zM90 365l-5 -9l-5 2l5 9zM125 399l-10 4l-2 -5l9 -4zM273 167q-3 0 -10 2t-11 2 q-9 0 -30 -21q-7 7 -11 7q-5 0 -20 -13t-20 -19q-3 0 -8 2t-9 2q-6 0 -32 -15q-16 -9 -33 -18q1 -4 1 -7q0 -11 -23.5 -25t-23.5 -24q0 -4 2 -12.5t2 -12.5q10 3 53 19.5t47 16.5t5 -2t4 -2q6 0 11.5 12t6.5 13q6 6 30 19q3 2 31 28q23 22 31 21q-1 2 -1 4q0 4 8 10v13z" />
<glyph unicode="c" horiz-adv-x="382" d="M477 237l-11 -13q-7 0 -12 5l8 8h15zM467 216q-22 -21 -44 -41q-29 -25 -51 -30q-8 -12 -7 -22q-5 -1 -15 -11t-14 -12q-19 -8 -56 -25q-38 -23 -115 -65q-54 -26 -62 -26q-5 0 -13.5 5t-13.5 5q-4 0 -11 -3.5t-11 -3.5t-10.5 5.5t-8.5 6.5q-49 20 -49 75q0 34 38 77 q54 62 59 70l3 -7q11 8 11 18q0 3 -3 8q26 29 80 83q6 -6 17 -11q5 12 17 34q7 10 29 24.5t30 23.5t17.5 32.5t19.5 34.5t28 11q6 0 20 -8.5t14 -13.5t-16 -45q-6 -2 -18 -10q-6 -33 -27 -71q-20 -32 -39 -65q-6 -23 -14 -70q-5 -9 -10.5 -17.5t-19.5 -8.5q3 0 -12 4 q0 5 -2 14.5t-2 14.5q0 9 4.5 19t4.5 13q0 5 -4 15q8 14 22 41l2 4q-1 1 -4.5 1t-7 3.5t-7.5 3.5q-2 0 -28 -20q-3 -6 -7 -20q-10 -7 -28 -21q-7 0 -24 -7q-2 -39 -71 -108q-8 -24 -8 -40t13 -32.5t28 -16.5q75 0 324 163q2 -1 3 -2t3 -2l6 6l-7 11q4 0 17 5.5t22 5.5 q4 0 8 -2zM274 276q0 8 -4 13q-5 0 -12 -8v-12q9 0 16 7zM142 248l-2 5l-8 -4v-5z" />
<glyph unicode="d" horiz-adv-x="518" d="M628 166q-8 -10 -8 -18q0 -4 2 -8h-15q-2 -1 -2 -13v-4q-10 -4 -25 -25q-22 -28 -23 -29q-10 -5 -56 -44.5t-49 -39.5t-3 3h-3q-5 0 -6.5 -6.5t-26 -21.5t-33.5 -15q-4 0 -12.5 7t-12.5 7t-5 -1.5t-5 -1.5q-26 0 -48 51q-18 44 -18 75q0 15 10 35q0 3 -2 10.5t-2 12.5 q0 8 8 25.5t8 26.5q0 12 -5 23q-23 -23 -61 -78q-20 -11 -56 -46q-41 -39 -59 -51q-7 -1 -24 -9q-13 -11 -20 -27h-3q-15 1 -22 -5.5t-10 -6.5q-24 0 -43 21t-19 46q0 4 11 16.5t12 16.5q17 37 55 77q50 55 61 70q13 8 34 24q17 23 57 66q12 7 35 21q1 0 22 19q10 9 30 9 q30 0 48 -18q18 9 32 54l-2 -11l2 -4q17 14 22 30q2 9 2 38q1 1 10 9q7 5 7 11q0 5 -4 10q22 37 43 73q32 46 65 46q14 0 24.5 -9.5t10.5 -23.5q0 -9 -43 -78q-15 -19 -44 -57q-15 -2 -21 -18.5t-12 -31.5q-9 -14 -27 -43q-56 -98 -70 -207q-8 -2 -22 -11l2 -19q3 0 9 14 q2 -6 4 -21l-5 1q-4 0 -7 -3l8 -10v-12q-2 -88 40 -88q-5 0 83 32v11q5 2 30 19t30 17q3 0 3 -3h3q10 0 10 19l54 50q31 31 47 57v-35zM294 287q-24 0 -119 -44q-10 -19 -29 -57q-3 1 -6 1q-4 0 -11.5 -2t-11.5 -2q1 0 1 -11v-4q-22 -20 -75 -111h14q50 0 177 137l12 -3 q1 11 6 12l-1 5q0 9 13.5 17t15.5 17q3 15 14 45z" />
<glyph unicode="e" horiz-adv-x="387" d="M504 230q-10 -5 -21 -4q1 -3 1 -6q0 -15 -34 -28t-35 -30q-16 -7 -90 -58q-63 -43 -83 -43q-10 -5 -10 -10q0 -2 4 -4h-3q-2 0 -15 -3q-6 -4 -5 -11q-8 -3 -22 -9q-2 -1 -23 -13q-16 -9 -22 -9q-11 0 -32 -3.5t-32 -3.5q-32 0 -45 20q-5 -5 -5 -10q-57 49 -57 125 q0 23 1 40q11 5 28 21q8 19 26 57q3 4 29 29q20 19 18 32h4q14 -1 18 24q69 50 84 61q60 38 92 38q14 0 27 -8q7 -5 14 -9l7 3l3 -6t2 -7q0 -20 -16 -20q-4 0 -5 2t-4 1q-3 -30 -46.5 -73.5t-41.5 -54.5h-6q-12 0 -21 -11.5t-17 -22.5q-12 -6 -34 -19q-6 -8 -21 -21 q-27 -15 -54 -31q-26 -19 -26 -53q0 -21 12.5 -42t31.5 -21q43 0 91.5 23.5t49.5 23.5q3 0 3 -1v0q0 -2 4 -2q9 0 9 17l11 -7q20 31 78 63q47 24 93 48q0 6 -7 6q10 1 33.5 18.5t43.5 17.5q4 0 7.5 -5.5t7.5 -10.5zM205 337q-63 -28 -118 -97l9 -5q29 23 85 74q8 6 16.5 12 t7.5 16z" />
<glyph unicode="f" horiz-adv-x="448" d="M574 244q-48 -6 -114 -24q-55 -17 -57 -17q-5 0 -13 2.5t-12 2.5q-20 0 -183 -59q-7 -15 -27 -59q2 -8 19 -8q-7 -16 -13 -32q-10 -24 -17 -24q-5 0 -5 2q1 1 1 5q0 2 -1 3q-12 -9 -14 -39q-2 -35 -5 -42l-17 -25q-11 -17 -11 -27q0 -8 17 -14q-6 -3 -14.5 -18t-13.5 -48 t-10 -46q-5 -16 -17.5 -29t-15.5 -23q0 -18 -9 -52q-5 -12 -15 -35q-7 -31 -25 -91q-10 -27 -32 -84q-11 -9 -27 -42h-13q-5 0 -5 3l1 2q0 6 -5 6q-6 0 -14 -5.5t-13 -5.5q-1 3 -11 27q-8 20 -8 27q0 8 9 24t10 23q12 12 40 29q8 49 39 117q27 57 53 114q10 21 27 80 q6 22 23 57q20 38 33 47q-4 7 -13 20q20 51 63 151q-4 13 -14 13q-36 0 -68 -12t-65 -27q-4 3 -15 3t-11 30q0 40 50 54q39 6 79 13q33 6 78 9q8 11 9.5 26.5t16.5 31.5q-14 16 -14 22q0 4 17 23l9 -10q7 7 7 14q0 9 -14 18q2 5 17 53q11 33 27 49q0 61 55 135q11 41 32 73 q10 17 10 16q0 4 -3.5 10.5t-3.5 9.5q32 46 64 91q48 68 70 68q24 0 43.5 -30t19.5 -57q0 -36 -46.5 -114t-79.5 -95q6 14 6 23l14 -5q5 23 28 92q19 57 19 92q-21 -12 -53.5 -49t-53.5 -49q4 -7 4 -16l-1 -17l-5 11q-2 -1 -25 -14q0 -6 9 -14q-100 -154 -100 -238 q0 -19 7 -30l-18 4q-23 -53 -36 -95q3 -1 13 -1q53 0 158 9.5t158 9.5z" />
<glyph unicode="g" horiz-adv-x="538" d="M542 391q0 -16 -7 -31q-9 -19 -11 -30l-50 -44q-28 -25 -35 -55l-11 3q-2 -13 -8 -39q-2 -7 -13 -15q-14 -11 -16 -14q-7 -60 -77 -183q1 -4 1 -9q0 -26 -9 -38q-8 -4 -15 -11q1 -2 1 -4q0 -5 -7 -19q0 -13 -14 -43q-17 -35 -21 -48q-1 -7 -20 -31q-15 -19 -11 -34 q-35 -22 -36 -46h-2q-10 0 -23 -13q4 -4 11 -3q-19 -24 -52 -75h-2q-13 0 -26.5 -10t-13.5 -22q0 -4 1 -8q-5 -5 -31 -22q-20 -13 -27 -27h-14q-5 0 -5 3q1 3 0 5q-7 -4 -34 -29q-21 -19 -39 -19q-14 0 -40.5 -2t-40.5 -2q-4 0 -25 9.5t-30 9.5q-12 0 -15 -4l3 8 q-9 4 -70 45l7 8q-3 9 -22.5 26t-27.5 43l-12 11q18 27 18 44q0 10 -25 18q12 4 12 18q0 15 -16 15q14 0 19 20q2 16 5 31l-8 7q-1 6 -1 12q0 22 7 49q9 32 22 42l-7 11q11 12 34 34q6 14 37 52q18 -9 27 -8q-27 -47 -79 -140q1 -12 1 -26t-3 -41t-3 -41q0 -78 50 -141 q54 -68 130 -68q12 0 56 15q41 15 54 23q21 12 55 42t51 42q7 4 21 25t21 28l-1 11q12 9 36 26q-2 7 -11 8q0 11 10 18.5t19 13.5q1 14 1 23l8 -8q0 2 11 25q10 18 10 23q0 6 -5 13q18 11 41 26q1 10 -15 17q14 17 23 51t20 46q2 8 -6 10q11 4 18 20t7 29q0 18 -5 30 q-5 -6 -29 -26q-20 -16 -21 -25h-16q-1 -2 -1 -3q0 -2 6 -3q-38 -24 -77 -48q-49 -27 -84 -27q-26 0 -30 9.5t-8 20.5q-1 2 -9 9t-8 12q0 25 19 46q23 24 30 52q38 37 77 64q2 2 7.5 11.5t9.5 9.5q5 0 6 -1.5t3 -2.5q3 3 6 9q-5 4 -15 4q5 2 40 26l51 30q2 17 26 29t24 20 q0 3 -2 6q10 0 17 -6q13 10 13 28q15 14 49 39q17 12 72 36q3 1 24 14q18 11 23 11q12 0 29.5 -9.5t17.5 -20.5zM363 285q-2 0 -4 2l1 2q0 4 -15 3q1 -4 1 -8q0 -13 -17 -26l-28 -18q3 -17 3 -10q0 -2 -1 -3q-3 3 -11 3q-30 0 -58 -30q-21 -27 -42 -53q-22 -10 -49 -43 q-32 -38 -46 -48q0 -14 -8 -41q42 0 105 41q49 33 98 65q0 11 18 29q23 22 26 26q4 15 18 41v6q-1 22 13 37.5t14 16.5l-7 3q5 2 10 8z" />
<glyph unicode="h" horiz-adv-x="367" d="M530 100q-6 -18 -1 -31q-16 -12 -33 -24q-20 -16 -25 -30l-5 1q-13 0 -36 -23.5t-37 -26.5h-32q-4 0 -4 -5l2 -5q-4 0 -11.5 -2.5t-11.5 -2.5q-3 0 -7 3.5t-9 3.5t-13.5 -1.5t-13.5 -1.5q-3 0 -9.5 1.5t-9.5 1.5t-6 -1.5t-6 -1.5q-38 0 -67 48q-25 42 -25 83q0 14 5 19 q-3 3 -10 3l-1 12q-2 58 31 125q1 2 13 19q8 13 8 19q0 -5 -2 8h11q0 3 6 9q-4 2 -7 10.5t-8 12.5q-12 -19 -41 -45q-23 -20 -47 -41q-27 -36 -53 -72q-40 -54 -63 -54q-4 0 -5.5 1.5t-5.5 1.5q-3 0 -12 -14q-10 8 -20 16.5t-10 24.5q0 18 42 95q46 83 52 108q17 0 32 29 q12 24 13 45q10 13 30 38q-2 5 -2 12q0 18 18 46q14 21 29 42q6 -7 11 -7q3 0 12 9q-7 12 -7 23q0 25 34 49q-1 15 23.5 52t39.5 37q48 0 48 -25q0 -1 -27 -55q-14 -1 -31 -28q-21 -35 -25 -39q-11 -4 -29 -22q-1 -12 -10 -32l-34 -28q-12 -13 -21 -38q5 -3 14 -11 q-35 -2 -32 -50q-17 -14 -33 -55q-12 -32 -23 -64l6 -6q8 6 23 30q10 15 35 29q34 19 39 23q11 14 36 37q48 33 80 33q7 0 19.5 -7.5t12.5 -13.5q0 -8 -12 -28q-13 -24 -15 -31q-6 -16 -42 -91q-28 -57 -28 -88q0 -8 -6.5 -23t-6.5 -22q0 -33 24 -72q26 -45 56 -45 q34 0 106 39q2 -1 7.5 -12.5t10.5 -11.5q3 0 7 1.5t6.5 2.5t2.5 7t-3 23h5q9 0 40 23q37 27 44 31zM438 46l-5 -14l-5 2l5 12h5z" />
<glyph unicode="i" horiz-adv-x="337" d="M471 596q-5 -7 -15 -18q-6 6 -10 6q-8 0 -12 -6l-8 6l-3 -5l1 -4q-1 0 -5 1.5t-6 1.5q-4 0 -14.5 -5.5t-13.5 -5.5q-40 -8 -119 -27q-10 -11 -31 -25q-26 -17 -33 -23q-13 7 -25 23q-17 22 -22 27v2q-1 7 9 15.5t17 8.5q3 0 3 -1v-1q0 -2 3 -2q-1 0 14.5 7t30.5 7 q4 0 13 -2t13 -2q35 23 68 25t64 4q37 4 62 1q6 3 6 6q4 -5 13 -14zM394 200q0 -26 -46 -62q-32 -25 -69 -44q-12 -7 -40 -9q-2 -6 -12 -18q-10 -8 -58 -33.5t-56 -25.5q-11 0 -33 -5t-34 -5q-22 0 -44 29t-22 52q0 10 16 42.5t24 40.5q0 11 22 33q12 31 58 94q52 71 73 71 l8 -5t19 -5q4 -14 4 -11q0 -7 -4 -21t-4 -19q-29 -26 -59 -51q-37 -34 -47 -58q-11 -4 -13 -16q-4 -22 -4 -23q-8 -15 -15 -29q-9 -17 -9 -33q0 -38 18 -38t60 15q52 19 61 22q4 4 4 10q26 10 59 28q2 2 0 12q5 1 9 1t4 -2q0 -3 -10 -9q26 14 69 49q5 0 57 28q0 -1 7 -1 t7 -4z" />
<glyph unicode="j" horiz-adv-x="426" d="M708 585q-4 -2 -11 -2q-10 0 -28.5 6.5t-27.5 6.5q-5 0 -12 -8q-2 0 -22 20q-10 0 -18 -16q-31 4 -105 4q-5 0 -10.5 4t-6.5 4q-4 -4 -3 -12q-23 -3 -67 -10q-28 -6 -62.5 -35t-51.5 -29q-15 0 -31 13t-16 28q0 11 22 30t33 19q5 0 5 -1l-1 -1q0 -2 4 -2q6 0 24.5 10 t24.5 10q3 0 9 -2t9 -2q6 0 16.5 6t16.5 6q4 0 11 -4t11 -4q6 0 14.5 6t14.5 6q4 0 12 -4t12 -4q2 0 12.5 5t13.5 6q22 5 66 5q11 0 71 -25t71 -34zM342 319q0 -1 -21 -60l-22 4q-6 0 -33.5 -21.5t-34.5 -30.5q-2 -65 -27 -66q-1 -5 -1 -11q0 -10 3 -23q-8 -8 -20 -31 q-17 -32 -19 -35v-11q2 -3 5 -3q4 0 8 5q-6 -6 -18 -24q-1 -8 -8 -25.5t-7 -19.5q0 -5 3 -16q-6 -5 -14 -16q-3 -6 -3 -41q0 -15 -14 -45q-1 -11 -4 -32q-7 -1 -11 -33q-4 -24 -4 -39q1 5 -4 10h-15q-2 -2 -12 -28q-7 -18 -20 -20q0 -11 7 -25q6 2 10.5 5t5.5 11 q-15 -38 -41 -116q-13 -9 -21 -23q-11 -22 -15 -26q1 -4 1 -8q0 -8 -6.5 -22.5t-5.5 -23.5h-2q-2 0 -20 -20q-12 0 -29 -21.5t-19 -34.5q-12 -5 -33 -22l-9 8q-7 -4 -30 -25q-17 -16 -34 -16q-10 0 -28.5 -2t-28.5 -2q-6 0 -9.5 4t-7.5 7q-15 3 -54 3l4 9q-1 1 -4 1 q-2 0 -7 -1.5t-7 -1.5q-6 0 -11 4.5t-6 5.5q-2 15 -35 47t-33 47q0 3 2 7l-14 6q-3 3 -10 13q-6 -1 -17 -3l8 9q-10 9 -21 27q-15 24 -19 29v3q0 9 10 22q-16 17 -21 62t-18 59q0 19 14 19q5 0 7.5 -2t3.5 -2q4 6 4 12q0 5 -4.5 15.5t-4.5 17.5q0 11 9.5 38.5t8.5 39.5 l92 92q3 1 7 -1.5t7 -2.5q5 0 16 9q15 11 16 11q-5 -16 -26 -30q-25 -17 -31.5 -25.5t-36 -83.5t-29.5 -84q0 -18 10 -59q11 -44 21 -54q-5 -8 -5 -19q0 -28 36 -75q27 -34 55 -68q6 -2 62 -28q37 -18 66 -18q68 0 129 62q11 11 41 80q4 -2 12 -4q3 9 3 13q0 6 -3 11h13 q3 4 3 9q0 6 -5 6q13 0 22 10q3 -5 8 -12v40q-1 27 -1 41q20 5 31 19v3q1 4 -1 10.5t-2 9.5q0 13 15 22q2 14 14.5 48t12.5 47q0 9 -5 13q0 2 11 18q3 23 22 37q-2 22 -17 31q45 79 54 168q8 9 19 19q-4 4 -18 4q13 0 22 9q-7 15 -16 19q10 21 37 58q0 2 -4.5 7.5t-4.5 10.5 q0 13 10 17q15 6 18.5 11t15.5 46q10 33 26 34l-9 8q3 2 25 23q16 15 28 15q18 0 37.5 -15.5t19.5 -33.5zM22 -456h-5l-5 10l5 2z" />
<glyph unicode="k" horiz-adv-x="466" d="M555 110q-8 -13 -35 -46q-30 -38 -36 -38q-4 0 -6.5 3.5t-3.5 3.5q-5 -10 -27 -22q-17 -10 -14 -18q-9 0 -24 -5q-18 -7 -16 -15h-3q-9 0 -13 6q-17 -12 -23 -27q-2 3 -8 3t-27 -10t-26 -10q-12 0 -37 -3.5t-38 -3.5q-18 0 -29 12l-12 14q-50 21 -68 45q-21 27 -21 80 q0 5 4 15t4 15q0 2 -3 3q-1 3 7 15q1 2 1 21q0 14 9 24q18 17 19 18q-5 3 -10 3q-15 0 -27 -19q-8 -15 -16 -31q-10 -5 -21 -12t-8 -16q-5 0 -14.5 -2t-14.5 -2q-7 0 -16 13t-9 21t15 31q13 20 21 29q1 2 -3 10q33 67 60 111q10 16 26 56.5t28 58.5q2 4 19 16q13 10 13 19 q0 7 -6 13q12 15 25.5 31t10.5 34q6 10 16 33q21 21 38 61q9 19 44 19q18 0 18 -29q0 -17 -36 -63q-39 -49 -43 -66q-11 -4 -28 -18q-4 -5 -4 -17t-2 -16q-22 -36 -62 -109q-2 -12 -9 -37q-1 -2 -8.5 -11t-7.5 -13q0 -2 3 -4h2q6 0 28.5 26.5t49.5 28.5q19 34 54 55 q13 9 49.5 22.5t49.5 13.5q5 0 15.5 -5t12.5 -6v-12q-8 -3 -10.5 -13.5t-3.5 -19.5q-58 -39 -87 -67q-25 -24 -62 -73q-52 -69 -59 -78q0 -14 -5.5 -43.5t-5.5 -43.5q0 -41 28.5 -69t69.5 -28q20 0 50.5 8.5t36.5 8.5q3 0 5.5 -1.5t6.5 -1.5t13 10q6 6 12 13l4 -7h9 q4 7 16.5 19t17.5 12q4 0 4 -1v0q0 -2 3 -2t61.5 38t68.5 42zM134 225q-6 -2 -15 -6v-16q15 9 15 22z" />
<glyph unicode="l" horiz-adv-x="316" d="M270 32q-4 4 -25 4q-6 0 -11 -10t-5 -17h-3q-7 0 -10 3q-44 -38 -78 -38q-10 0 -13 4l-11 -8l2 5q0 3 -5 3q-3 0 -10.5 -4t-12.5 -4q-11 0 -30 21q-13 16 -26 31q6 4 15 15q-2 3 -6 3q-5 0 -12 -4q0 7 -4.5 19.5t-4.5 19.5q0 10 10 25.5t10 26.5t-4 21l8 -4q-1 9 -1 18.5 t-7 14.5q29 26 23 60q5 0 16 11v1q0 3 -8 19l4 -1q16 0 24 29q10 40 11 42q11 6 18 15q12 16 15 19q-6 21 -5 31v3q3 1 10 5q0 7 -8 15q12 3 15 15.5t6 16.5q10 12 29 47q16 31 32 45q-7 6 -15 6q4 6 4 11q5 0 9 -4q8 8 25 22q-1 3 -8.5 7.5t-7.5 9.5q0 6 14 21t14 17 q4 -4 12 -4l7 7q-7 9 -19 15q17 20 32 63q8 24 39 24q5 0 19 -6.5t18 -9.5q-2 -10 -4 -30q-23 0 -30 -30q-7 -4 -17 -36t-21 -41q-38 -35 -38 -49q0 -5 2 -9q-23 -33 -23 -42q0 -5 3 -9q-24 -12 -31 -29q-4 -20 -9 -40q-31 -20 -29 -46q-6 -13 -24 -36q6 -8 6 -17 q0 -15 -20.5 -43t-20.5 -43q0 -7 4 -14q-14 -5 -19 -62q-6 -9 -6 -19q0 -4 2 -8h-3q-5 0 -9 -3q4 -4 16 -53q10 -42 27 -42q9 0 66 25t62 25q4 1 4 -1v0q0 -2 4 -2q50 46 66 46q4 1 4 -1v0q0 -2 4 -2q5 0 17 6.5t21 6.5l6 -1q-13 -21 -48 -50q-41 -34 -53 -48z" />
<glyph unicode="m" horiz-adv-x="599" d="M752 134q-6 -30 -60.5 -79t-87.5 -58q-8 -2 -37 -19t-36 -17t-23 -2t-24 -2q-60 0 -89 73q-3 9 -3 58q0 14 -6 23q-34 -42 -68 -83q-45 -54 -82 -54q-17 0 -27 22q-7 17 -7 36q0 13 7 51h5q5 0 10 3q-5 5 -15 5q2 10 18 53q11 32 11 54v5q-61 -64 -140 -167 q-5 -6 -24 -20t-24 -14h-40q0 10 3 15l-5 5l-7 -3q-7 7 -7 18q0 2 18.5 40t20.5 46q15 34 43 103l28 86q24 69 32 69q4 0 10.5 -5t10.5 -5t6 1.5t5 1.5q15 0 15 -20q0 -19 -35 -102q-34 -79 -48 -101q-1 0 -1 -1t5 -1q15 0 63.5 54.5t52.5 54.5q3 0 3 -2t3 -2q7 0 11 12.5 t5 13.5q40 51 78 51q6 0 16 -1t15 -1l11 -11q-30 -75 -93 -223l2 -22q26 28 55 44l2 14q25 21 54 62q43 59 49 67q4 1 12 1t22 -3.5t21 -3.5q7 -15 7 -22q0 -3 -7 -13.5t-8 -14.5q-4 -13 -13.5 -58.5t-9.5 -56.5q0 -81 38 -81q10 0 59.5 18t60.5 25q36 22 39 22t3 -1.5 t3 -1.5q2 0 9 15q8 1 22 6q34 25 52 43h11z" />
<glyph unicode="n" horiz-adv-x="464" d="M562 91q-13 -11 -76 -86q-21 -8 -41 -17q-30 -14 -30 -26q-14 -2 -54 -15q-34 -11 -54 -11q-55 0 -83 51q-23 42 -23 102q0 26 11 66q9 32 19 64q-7 0 -43 -37.5t-41 -37.5q-4 0 -6 3q0 -1 -6 -12l7 -2q-106 -116 -122 -116q-3 0 -11 -1.5t-11 -1.5q-8 0 -18 13.5 t-10 22.5q0 26 42 64q0 5 -6 5q51 129 85 199v5q0 13 7 34q8 8 14 8q15 0 29 -9.5t14 -24.5q0 -4 -40.5 -87t-40.5 -89q0 -1 2 -1q15 0 25 9t20 11q26 28 53 57q41 39 61 40q2 3 3 14q9 4 38.5 31t30.5 27q6 0 28 -7t25 -11q-9 -25 -20 -53q-4 -2 -12 -7q-17 -43 -58 -113 v-7q1 -12 -6.5 -34.5t-7.5 -33.5q0 -28 15 -56q17 -33 42 -33q24 0 64 16l40 16q3 0 7 -9q1 0 50 39q31 24 57 22q2 7 9 19h22zM144 180l-5 10l-4 -2l4 -8h5zM137 171v12h-5v-12h5z" />
<glyph unicode="o" horiz-adv-x="365" d="M558 351q-20 1 -32 1q-10 0 -32 -1t-33 -1q-4 0 -8 -3.5t-8 -3.5q-9 0 -28 1.5t-28 1.5q-5 0 -14.5 -5t-14.5 -5q-6 0 -18 3.5t-18 3.5q-10 0 -28 -16l-25 -23q-6 -50 -13 -76q-12 -48 -36 -65q2 -7 10 -8l-74 -122q-52 -69 -116 -69q-14 0 -30 20.5t-16 35.5q0 5 14 17 q-6 6 -17 6q8 30 29 89l3 -7q10 10 32 63q17 41 46 49q-1 9 -11 9q14 9 41 28q-1 8 -10 9q18 20 37 41t18 50q154 7 156 7q8 0 24 -2t24 -2t22.5 5t22.5 5t25.5 -6t26.5 -6q39 0 69 -3zM215 275q0 5 -2 14.5t-2 13.5q-24 -15 -55 -63q-36 -54 -52 -69q-42 -86 -42 -110v-28 q10 4 31 10q25 19 73.5 111t48.5 121z" />
<glyph unicode="p" horiz-adv-x="466" d="M639 261q-10 -2 -47 -13q-33 -10 -41 -10q-3 0 -8 2t-8 2q-12 0 -36.5 -9.5t-36.5 -9.5q-2 0 -6.5 1.5t-7.5 1.5q-14 0 -65 -25v-5q0 -42 -101 -120.5t-154 -78.5h-49q-2 1 -29 28q-14 -13 -14 -21q0 -5 9 -5q-5 -20 -16 -60q-2 -5 -23 -50q-16 -33 -16 -49q0 -9 5 -15 q-10 -45 -19 -62q-17 -33 -50 -33q-7 0 -15 9.5t-8 17.5q0 10 14.5 36.5t22.5 31.5q-1 5 -9 5q0 19 33 54v4q-2 4 -4 15q9 6 16 17q9 15 14 19q-5 2 -13 7q11 3 19 12q-6 6 -12 8q9 0 17 11q13 18 14 19q-1 5 -13 5q9 3 11 17q1 10 2 21q4 8 13 24q10 10 33 26q0 2 -3 5.5 t-3 7.5q0 9 11 26.5t13 22.5q3 13 6 25q5 18 13 21l-6 6q25 30 25 40t-9.5 31t-9.5 31q0 46 46 71q37 21 88 21q18 0 71 -32t53 -47q0 -2 -4 -4q13 -18 32 -57q3 -1 15 -6.5t15 -5.5q15 0 30 8t29 16l8 -6q7 10 9 10q4 0 5 -3.5t5 -3.5q7 0 25 4.5t27 5.5l72 3zM340 240 q-4 3 -9 25t-8 28q-7 14 -35 35.5t-43 21.5q-8 0 -25 -10q-10 -23 -20 -45q-13 -28 -30 -39q0 -23 -17.5 -52t-37.5 -45v-6q1 -3 1 -5t-1 -3h-3q-9 1 -17 -3v-11q8 -8 8 -16q0 -7 -7 -11q27 20 82 56q11 2 34 8q6 2 25 14.5t21 12.5q3 0 3 -1.5t3 -1.5q4 0 15.5 12.5 t15.5 12.5q3 0 9 -1.5t10 -1.5q10 0 17.5 12.5t8.5 13.5zM318 188q-14 0 -17 1q-7 -16 -12 -16q-3 0 -9 1t-8 2q3 -3 5 -6q0 -2 -1 -3q-10 6 -16 6q-36 -29 -73 -57q-43 -36 -49 -76q17 11 45 22q43 18 47 19q32 34 47 51q26 30 41 56z" />
<glyph unicode="q" horiz-adv-x="479" d="M470 350q0 -9 -40.5 -61t-53.5 -62q-15 -33 -36 -102q-11 -7 -17 -31q-4 4 -12 4q0 -2 3.5 -6.5t3.5 -9.5q0 -10 -6.5 -15t-13.5 -11l10 -6q-3 -11 -7 -21t-17 -7v-11q0 -5 -9 -12q5 -9 5 -20q0 -14 -15 -49v-12q2 2 58 43q40 29 59 31q6 6 12 12.5t15 6.5q8 0 10 -3 l10 10q8 -8 8 -17q0 -4 -3.5 -10t-3.5 -9h-6q-13 1 -15 -19q-43 -10 -79 -55q-30 -39 -60 -77q-11 -8 -31 -27q4 -3 4 -7q0 -7 -15 -24t-13 -26q-15 -3 -35 -50q-16 -37 -21 -62q-39 -33 -59 -34q-7 18 -24 28q16 30 122 246v25q0 2 17 45t18 45q18 19 23 52q5 30 10 59 q-49 -36 -98 -71q-63 -42 -110 -42q-16 0 -38.5 20.5t-22.5 35.5q0 32 25 40q32 11 41 32q3 6 3 8q0 1 -6 9q8 2 33 25q16 6 33 15q0 1 -2 4q-6 -3 -18 -6q23 24 34 34q20 17 40 25q10 13 33 37q4 8 16 24q18 18 90 59.5t92 41.5q17 0 38 -13t21 -29zM337 302 q-43 -28 -127 -87q-22 -16 -77 -76q-60 -66 -60 -80q0 -8 4 -11h14q5 0 22 8t21 8t4 -1h-1q0 -2 4 -2q8 0 35 19q24 16 34 25q21 28 68 78q10 4 25 18q7 11 34 101z" />
<glyph unicode="r" horiz-adv-x="352" d="M465 248q-14 -29 -57 -59q-52 -38 -64 -51q-20 -6 -45 -26q-38 -28 -42 -31q-12 -5 -24 -12q-2 -2 1 -12q-13 -3 -67 -39q-47 -32 -85 -32q-4 0 -4.5 -1.5t-4.5 -1.5q-18 0 -33.5 18.5t-15.5 37.5q0 27 55 115q51 82 78 107v45q0 7 -13 20q-3 -1 -38 -13q-27 -9 -34 -9 l-8 14q0 1 4.5 2.5t11.5 7.5q14 12 31 38q-2 20 -10 60q14 11 37 11q22 0 31 -14q5 -17 17 -50q2 -5 23 -30q18 -22 18 -26q0 -45 -9 -64q-1 -2 -18 -17q-1 -17 -48.5 -85t-47.5 -81q0 -11 10 -11q15 0 25.5 8t22.5 15t48 16q2 15 32 33q21 12 42 25q1 0 40 16q27 11 30 27 q-2 -3 8 -3q9 0 46.5 26.5t44.5 36.5q1 -10 12 -11z" />
<glyph unicode="s" horiz-adv-x="432" d="M206 309l34 94q28 53 76 53q4 0 23 -10.5t21 -14.5q5 -24 5 -22q0 -7 -13 -20.5t-19 -13.5q-7 0 -10 3q-5 -12 -34 -59q-22 -36 -22 -63q0 -23 7 -37l250 57v-23q-3 -1 -57 -30q-47 -24 -51 -24q-19 0 -29 6q-3 0 -2 -10q-7 3 -15 3q-12 0 -60 -26q-4 -1 -34 -5 q-7 -11 -11 -49q-4 -47 -6 -55q-5 1 -11 7q-1 -2 -1 -4t1 -7.5t1 -8.5q-5 -2 -16 -7q0 -4 10 -4v-15q0 -4 -76 -66q-10 0 -30.5 -3.5t-30.5 -3.5q-4 0 -27 14q-26 16 -31 18q-4 13 -15 22q-7 7 -7 27q0 37 22 61t45 48l-1 -3q0 -4 7 -4q17 0 12 27l28 6q18 5 24 13q5 1 27 2 q22 31 22 52q0 5 -8 12q-16 -17 -27 -17q-5 0 -8 3.5t-5 3.5q0 6 -3 -20q-10 -4 -14 -4q-2 0 -3.5 2t-4.5 2q-1 0 -4.5 -1t-4.5 -1q-11 0 -13 16q20 9 47 34q33 31 45 39zM212 134q0 -4 -4 10q-7 -1 -19 -5q-31 -17 -75 -53q-1 -7 -9 -31.5t-8 -30.5q0 -4 2 -10t2 -8h14 q36 0 68 47q29 43 29 81z" />
<glyph unicode="t" horiz-adv-x="461" d="M546 346q-1 -1 -2 -1q-4 -2 -22 -8q-60 -18 -74 -18q-19 0 -68 -1h-68q-12 -9 -23 -9q-7 0 -19.5 5t-19.5 5q-12 0 -47 -61q-40 -70 -45 -76q-4 -43 -29 -66q-5 -38 -21 -112q-12 -11 -32 -30q-2 0 -2 4q0 5 3 11q-2 1 -5 1q-4 0 -12 -2.5t-12 -2.5q-8 0 -15 7.5t-7 15.5 q0 18 30.5 67.5t30.5 66.5q0 5 -2 9h11q4 5 3 18q5 2 15 4q5 22 38 125q-21 -6 -40.5 -12.5t-30.5 -38.5q-2 -6 2 -17q-5 -11 -7 -12t-15 -1q-8 0 -30.5 23t-22.5 32q0 37 59 66q51 24 94 24q3 0 8 -1.5t8 -1.5q20 0 34 25q18 32 23 36q16 12 16 25q0 3 -1 8v9q0 12 19 34 q22 26 26 36q23 64 42 84q9 18 23 54q1 11 6 33q5 12 39 12q5 0 19 -13t14 -18q0 1 -16 -55q-28 -18 -56 -71q-21 -41 -43 -82q-11 -12 -30 -40q-1 -3 -1 -22q-12 -8 -19 -20q-10 -19 -13 -23q0 -4 9 -12q22 7 36 7q10 0 29.5 -2.5t28.5 -2.5q8 0 22.5 2.5t21.5 2.5 q4 0 4 -2l-1 -1q0 -4 4 -4q6 0 16.5 3.5t16.5 3.5t16.5 -3.5t16.5 -3.5q3 0 25.5 5.5t41.5 4.5v-23zM307 487l-4 4l-12 -13l3 -4z" />
<glyph unicode="u" horiz-adv-x="473" d="M624 159q-33 -13 -88 -75q-14 3 -11 3q-12 0 -42 -16q0 -9 9 -9q-31 -15 -74 -33q-6 -13 -12 -13q-2 0 -2 6q-2 3 -3 1q-23 -24 -58 -24q-93 0 -94 115q-17 -16 -54 -46l-15 -2q-3 -23 -51 -51.5t-74 -28.5q-3 0 -8.5 3.5t-8.5 3.5q-4 0 -4.5 -3.5t-3.5 -3.5q-5 0 -14 7 t-15 7q0 7 -5 21.5t-5 21.5q0 35 39 88q42 57 46 80q26 40 53 81q43 62 60 62l16 -6.5t20 -7.5v-29q-14 -6 -39 -42q-33 -47 -36 -50q-4 4 -8 4q-1 -22 -29.5 -61.5t-29.5 -57.5l-3 7q-9 -20 -25 -59q3 -5 8 -5q30 0 122 80l120 108q1 10 33 42.5t40 32.5q3 0 7.5 -3.5 t7.5 -3.5q6 0 5.5 2t5.5 2l1 -1q20 -10 20 -25q0 -22 -29 -47q-41 -34 -45 -38q-14 -20 -26.5 -56t-12.5 -60q0 -27 21 -27q15 0 54 11q36 10 52 17q9 4 64 40q52 34 54 34q3 0 3 -2t3 -2q-1 0 47 31q15 -16 14 -23z" />
<glyph unicode="v" horiz-adv-x="405" d="M532 326q-2 -1 -8 -4.5t-11 -3.5q-3 0 -8.5 2t-9.5 2q-3 0 -7.5 -3.5t-8.5 -3.5q-3 0 -6.5 3.5t-7.5 3.5t-4.5 -3.5t-4.5 -3.5q-5 0 -15 3.5t-15 3.5q-58 0 -119 -28q-68 -31 -90 -78q-17 -39 -67 -121q-60 -100 -75 -100q-4 0 -12 -2t-12 -2q-5 0 -19 8q-14 32 -14 110 q0 13 4 41.5t4 43.5q0 55 20 73q-11 16 -11 49q0 59 27 59q10 0 48 -22q-1 -33 -16.5 -110.5t-15.5 -113.5v-11l5 -6q21 26 74 118q40 68 75 95q50 39 128 39q6 0 16.5 -3.5t15.5 -3.5t13 3.5t12 3.5l34 1q40 0 53 -4q30 -7 28 -35z" />
<glyph unicode="w" horiz-adv-x="597" d="M466 235q-91 -216 -195 -268q-63 38 -63 105q0 13 3 39t3 39q0 18 -4 33v0q0 3 -6 3q-7 0 -36 -38q-33 -42 -38 -46q-13 -11 -37 -31q-12 -18 -33 -56q-16 -4 -12 -4q-8 0 -25 18t-17 27q0 19 48 158q48 136 64 168q47 -20 47 -57q-31 -23 -42 -75l-21 -15v-54l9 -10 q4 3 67 67q55 55 61 55q8 0 33 -8q0 -11 7.5 -32.5t7.5 -31.5q0 -20 -11 -64t-11 -66q0 -39 24 -50q31 44 62 89q39 56 48 94q10 1 13 5q13 39 40 99q3 5 40.5 14.5t47.5 9.5q5 0 17 -2t18 -2q15 0 54 3q35 3 55 2h2q6 -5 9 -13.5t5 -16.5q-90 -16 -199 -57q-13 -12 -35 -31 z" />
<glyph unicode="x" horiz-adv-x="565" d="M552 106q-14 0 -11 -25l-9 3l-60 -33q-3 -2 -24 -22q-15 -13 -28 -13l-7 3q-10 0 -46.5 -21.5t-48.5 -21.5q-4 0 -9.5 2t-9.5 2q-3 -4 -11 -9.5t-26 -5.5q-29 0 -55.5 15t-51.5 30q6 4 12 13h-6q-24 -2 -38 36q-9 29 -17 58q-27 -23 -76 -51q-52 -30 -82 -40 q-13 17 -13 20q0 10 14 25q18 18 20 22q3 -6 9 -5q35 18 34 31q2 -1 4 -1q15 0 48 25q30 22 43 37.5t13 47.5q0 20 10 31q-7 6 -7 18q0 8 4 21.5t5 18.5q1 6 0 15q-2 11 -2 15q0 21 12 27q3 0 10 1.5t10 1.5q16 0 26 -13.5t10 -30.5q0 -15 -4 -42q-6 -30 -7 -42q0 -2 8 -2 q4 0 24 18t25 18q3 0 3 -1v-1q0 -2 8 -2v0q0 19 90 72l3 -1v0q0 -3 4 -2l45 25q6 -5 21 -11q-3 -18 -52 -48q-53 -34 -63 -48q-41 -36 -130 -97v-13q-2 -83 41 -117q2 -1 7 -8.5t10 -7.5t16 1h16q11 0 20 -1l14 14q8 0 22 -14q46 36 62 36q4 0 4 -1l-1 -1q0 -2 4 -2t18.5 13 t17.5 13q4 0 11.5 -2t12.5 -2t8 13q13 2 36 9q6 4 46 34q36 27 39 27q4 0 4 -1v-1q0 -2 4 -2z" />
<glyph unicode="y" horiz-adv-x="599" d="M634 475q2 -19 -9 -35q-4 -5 -15.5 -10t-15.5 -9q-9 -16 -32 -44q-7 -7 -80.5 -70t-117.5 -176q-37 -100 -74 -201q-9 0 -29 -16q11 -9 12 -15q0 -5 -5 -17q-7 -15 -7 -16v-2q0 -6 -16 -44q-1 -1 -13 -48q-8 -4 -10 -8.5t-1 -9.5q1 -10 4 -16q-15 -10 -20 -34.5 t-17 -31.5l1 -3q2 -17 -12 -46l-22 -45q-11 -30 -77 -110q-2 -1 -15 -10q-8 -5 -8 -15l-9 2q-13 -24 -26 -33q-72 -56 -111 -60q-4 0 -13.5 4.5t-14.5 4.5q-4 -1 -4 -4.5t-4 -3.5q-9 -1 -28 4.5t-28 4.5q-7 -1 -12 -8l-12 10v-1q0 -3 -7 -4q4 0 -68 22v3q0 9 -18 15 q-24 8 -26 10q-19 13 -39 27q-24 18 -32 32q-34 64 -41 109q3 8 3 16q-1 8 -9 19.5t-9 16.5l-2 26q10 3 26 21q4 10 1 45q0 6 -3 11l-7 -9q-1 6 -8 17q-6 9 -10 17q28 3 26 32q-1 5 -3 10q4 15 14 41q13 1 22 26q6 19 13 38h20q-55 -112 -50 -169q0 -3 1.5 -9t1.5 -9 q1 -7 -2.5 -23t-2.5 -23q10 -114 79 -196q78 -90 186 -80l42 4q54 5 141 98q16 12 45 41q4 1 14 4q47 92 52 104q28 58 42 108q16 5 14 24q-1 11 -8 25l9 -3q7 4 9 21q4 1 15 10q-2 9 -5 28v3q13 14 19 42q6 23 11 46q13 12 14 27q11 1 17 8q-5 2 -11 8l11 1q1 3 1 5 q-1 3 -2 7t-2 7q0 6 9 23.5t14 25.5l7 -3q-1 8 1 25q2 10 2 7q-1 9 -14 8l-2 13q4 7 23 24q-3 6 -10 18q-1 -10 -34 -34q-37 -28 -42 -35q-21 -28 -52 -63q-5 -1 -6.5 -5.5t-2.5 -5.5q-13 -5 -36 -26q0 -1 1 -4q0 -4 -6 -4q-5 -1 -7.5 2.5t-3.5 3.5q-2 -1 -1 -3q0 -4 3 -11 q-9 -5 -38 -7q-15 -2 -35.5 16t-22.5 34q-2 20 37.5 79t37.5 80q23 9 18 41q10 6 25 51q12 39 39 41q8 1 25 -9.5t18 -17.5q1 -14 -22 -47t-37 -44q-3 -51 -35 -76q-19 -42 -27 -71l6 -6q1 0 88 72q16 17 52 50q12 6 35 17q2 1 1 3q0 1 -2 9q7 8 26 19.5t26 19.5 q18 32 64 85q-1 3 -2 7q-1 10 24.5 33t25.5 45q2 2 5 2q4 1 11 -3q0 8 2 26q10 5 52 51q34 37 57 39q14 1 36.5 -9.5t23.5 -23.5zM-450 -267l-2 -21l-6 -1l2 21zM-446 -317h-6l-6 23l6 1z" />
<glyph unicode="z" horiz-adv-x="492" d="M495 163q-18 -8 -35 -16q-26 -11 -26 -22q-4 0 -11 1.5t-11 1.5q-5 0 -26.5 -13.5t-25.5 -13.5t-7 3t-7 3q-3 0 -9 -1.5t-9 -1.5q-3 -6 1 -16q-2 -1 -8 -4.5t-11 -3.5q-3 0 -8 3.5t-9 3.5q-12 0 -29 -17t-20 -17q-4 0 -4.5 1.5t-4.5 1.5q-7 0 -24.5 -15t-27.5 -15 t-20 -13q-12 -18 -15 -20q-20 -5 -51 -23q-10 -9 -24 -43q-4 0 -11.5 -1.5t-11.5 -1.5q-9 0 -25 14t-16 21q0 5 22.5 29.5t23.5 25.5t2 18q50 54 72 102q3 7 27 27t32 41q15 36 62 75t59 66q-8 1 -18 1q-13 0 -39 -2.5t-39 -2.5q-9 0 -15 7q-6 -6 -6 -13q1 3 -8 3t-38 -14.5 t-32 -21.5q1 -2 9 -9.5t8 -12.5q0 -4 -3.5 -10.5t-4 -8t-2.5 -3.5t-7 -2q-19 0 -57 25.5t-38 42.5q0 14 20 29t34 15q4 0 4 -1v0q0 -2 3 -2q5 0 20.5 7.5t22.5 8.5q77 11 114 11q3 0 8.5 -3.5t8.5 -3.5q5 0 9 4t6 5q17 8 56 8q4 0 11.5 -1.5t11.5 -1.5q10 0 33 10t33 10 q11 0 38 -27q0 -45 -103 -83q-12 -9 -33 -29q-22 -24 -43 -49q-26 -29 -53 -35q3 -3 10 -2q-28 -56 -68 -90v-22l8 4q4 0 5 -3.5t4 -3.5q4 0 19 10t20 10q4 0 4 -1h-1q0 -2 4 -2q5 0 18 10t18 10q3 0 4 -1.5t4 -1.5q5 0 34 15.5t34 15.5q4 0 4.5 -2t4.5 -2q36 18 90 28 q5 1 18 8.5t18 7.5q4 0 6 -5t6 -5q3 0 6.5 1.5t4.5 1.5v-12zM160 74l-4 19h-6l4 -19h6z" />
<glyph unicode="&#xa0;" />
<glyph unicode="&#xaa;" horiz-adv-x="496" d="M588 149l-26 -26q-21 -21 -21 -25q0 -3 2 -8q-59 -23 -65 -50q-31 -9 -34 -10q-20 -9 -22 -25q-25 2 -18 2l-7 -1q3 -5 10 -10q-30 -5 -63 -5q-4 0 -10 5t-10 5q-3 0 -4 -1.5t-4 -1.5q-17 0 -34 23l-26 37q0 -7 0 41q0 25 -5 25q-7 0 -11 -19q-43 -33 -55 -33 q-1 -1 -1 -2q0 4 2 -10q-15 -5 -26 -17.5t-21.5 -23t-35.5 -23.5t-35 -21q-20 6 -41 11q-22 9 -22 33q0 25 29 60t52 35q0 5 -13 5q5 4 36 46q23 31 42 36l-10 9q29 15 29 29q0 3 -3 8l24 3q-1 0 -1 22q18 13 24 19q13 11 19 24q3 0 9 -1.5t9 -1.5q38 71 83 71q20 0 35 -11 t15 -31q0 -12 -13 -18q9 -7 26 -21q0 -12 -1 -34q-13 -13 -40 -36q-1 -9 -4 -25q-4 -4 -18 -42q-1 -4 -15 -33q-13 -24 -13 -29q0 -18 16.5 -47t32.5 -29q6 0 17 -1.5t17 -1.5q4 0 21 17.5t21 17.5q3 0 3.5 -1.5t3.5 -1.5q2 0 23.5 19t26.5 21.5t24 2.5t16 21q16 12 49 37 q3 -4 11 -8zM306 273q-8 9 -3 19q-5 -3 -15 1q-3 -5 -10 -13q-13 1 -28 -15q-10 -13 -21 -27q-4 0 -13 -2q-97 -122 -103.5 -122t-13.5 -7q2 -3 2 -7q0 -8 -12.5 -24.5t-11.5 -31.5q19 2 54 24t42 39h1q9 0 28 20q16 17 22 30l8 -7q26 10 26 16q0 5 -5 6t-5 2q1 2 35 47 q23 32 23 52z" />
<glyph unicode="&#xb2;" horiz-adv-x="366" d="M335 398q0 -27 -50 -110q-37 -63 -71 -108q-8 0 -13 -4q-2 -23 -28 -52q-35 -39 -40 -48q10 -6 47 -6q11 0 30 5.5t28 5.5q5 0 17.5 -5.5t17.5 -5.5t12.5 5.5t11.5 5.5q0 -2 2 -6.5t2 -8.5q0 -15 -17 -18h-28q-2 -2 -2 -6q0 -6 6 -16q-5 2 -31 2q-9 0 -15 1q0 -7 -3 -22 q-7 4 -16 4h-6q-59 -23 -141 -23q-8 0 -19 15t-11 22q0 13 5 22q26 27 67 70q2 1 20 12q7 16 46 71q33 46 35 67h2q7 0 22 29q10 18 19 37q-4 4 -12 10q-4 -4 -3 -19q-23 1 -62 -55.5t-48 -56.5q-10 0 -26.5 20t-16.5 30q0 5 4.5 15.5t4.5 16.5l8 -4q26 31 101 89 q83 64 108 64q17 0 30 -13.5t13 -31.5z" />
<glyph unicode="&#xb3;" horiz-adv-x="359" d="M341 370q-47 -41 -95 -82q-57 -49 -83 -92q2 -6 26 -15l32 -10q20 -9 38.5 -35.5t18.5 -47.5q0 -5 -6.5 -23.5t-7.5 -23.5q-8 -42 -32 -70q-27 -27 -54 -55q-80 -83 -121 -91q-2 22 -20 27q3 2 20 20q14 16 19 16q-4 0 11 -4l6 6l-11 13q-1 -1 18 -1q18 0 20 44l56 64 q32 42 32 76q0 35 -47 35q-12 0 -41.5 -15.5t-34.5 -25.5h-12q-12 0 -31 15.5t-19 27.5q0 4 60 81q13 16 36 24q4 20 22 46q28 39 30 41q-2 9 -15 9q-16 0 -46 -13.5t-33 -26.5h-19q-5 0 -22 17.5t-17 22.5q0 27 75 50q65 21 101 21q4 0 4.5 -2t4.5 -2q13 0 43 13t44 13 q10 0 27 -17.5t23 -29.5z" />
<glyph unicode="&#xb9;" horiz-adv-x="224" d="M183 377q0 -11 -9 -33.5t-9 -36.5q0 -35 -15 -82q-14 -40 -27 -79q-4 -16 -5.5 -52.5t-8.5 -53.5q-5 -12 -19 -31q-17 -24 -25 -24t-34 22.5t-26 30.5q0 5 36 76q40 77 44 86q24 73 76 218q1 -9 11.5 -22t10.5 -19z" />
<glyph unicode="&#xba;" horiz-adv-x="365" d="M558 351q-20 1 -32 1q-10 0 -32 -1t-33 -1q-4 0 -8 -3.5t-8 -3.5q-9 0 -28 1.5t-28 1.5q-5 0 -14.5 -5t-14.5 -5q-6 0 -18 3.5t-18 3.5q-10 0 -28 -16l-25 -23q-6 -50 -13 -76q-12 -48 -36 -65q2 -7 10 -8l-74 -122q-52 -69 -116 -69q-14 0 -30 20.5t-16 35.5q0 5 14 17 q-6 6 -17 6q8 30 29 89l3 -7q10 10 32 63q17 41 46 49q-1 9 -11 9q14 9 41 28q-1 8 -10 9q18 20 37 41t18 50q154 7 156 7q8 0 24 -2t24 -2t22.5 5t22.5 5t25.5 -6t26.5 -6q39 0 69 -3zM215 275q0 5 -2 14.5t-2 13.5q-24 -15 -55 -63q-36 -54 -52 -69q-42 -86 -42 -110v-28 q10 4 31 10q25 19 73.5 111t48.5 121z" />
<glyph unicode="&#x152;" horiz-adv-x="1343" d="M1570 747q-3 7 -13 7q6 0 -53 -8q-80 -10 -127 -10q-22 0 -31 2q-3 0 -8.5 3.5t-8.5 3.5q-6 0 -17 -4t-17 -4t-37 5q11 12 11 20l-1 5l-11 -10q-21 -1 -31 -4q-16 -4 -26 -16h-9q-59 2 -102 -54q-33 -51 -67 -103q-9 -13 -35 -71t-26 -70q0 -6 6 -11q67 10 128 12 q40 1 121 7l-3 -21q-11 -1 -35.5 -5t-37.5 -4q-21 0 -94 -21q-80 -22 -105 -25q-28 -34 -39.5 -71.5t-22.5 -75.5q-17 -10 -17 -39q0 -10 3 -31q7 -71 20 -93q22 -37 85 -37q90 0 266.5 90t226.5 163l4 -5q-7 -17 -13 -35q-9 -19 -22 -31q-159 -137 -244 -185 q-28 -15 -60 -15q-66 -38 -147 -38q-60 0 -103 62q-40 56 -40 118q0 45 19 126q5 19 11 55l-2 4q-6 0 -30 -9.5t-33 -9.5q-11 0 -22 27q-10 23 -10 36q47 13 139 46q7 3 18.5 24.5t21.5 22.5v5q0 26 11 53q25 8 31 28q3 21 6 41q16 3 31 33q11 22 21 45l18 -3q6 12 19 19 q-2 16 -9 48q-54 -45 -185 -45q-31 0 -37 20q-9 28 -15 32l2 16q87 6 261 19q5 7 8 23q5 23 5 25q10 -19 42 -51q215 6 199 6q20 0 27 -7v-1q0 -4 3 -8q3 1 13 15q20 0 58 -2q39 -5 124 -23zM988 527l-6 3l-7 -10l6 -4zM854 432h-39q-23 0 -68 12.5t-69 12.5q-12 0 -20 -4 q1 -15 -21 -51t-22 -44q0 -2 1 -4q-17 -17 -65 -95q-40 -64 -77 -83q-5 -16 -23 -44q-1 -2 -29 -19q-22 -13 -22 -23q-83 -65 -111 -82q-68 -40 -130 -40q-48 0 -90 28q-45 31 -51 77q-24 10 -24 72q0 16 10.5 47.5t10.5 48.5q0 11 -4 17q6 4 17 13q-2 7 -13 7q5 9 14 15 q13 8 15 11q-6 7 -12 7q7 12 43 81q25 48 50 76q24 30 50 62l27 32q34 44 57 67q13 7 37 22l-3 13q25 17 49 34q32 22 44 38q12 5 36 33q18 21 50 21q26 0 51 -5q4 -1 13.5 -10.5t15.5 -9.5q4 0 4 2v0q0 3 4 3q93 -45 93 -89q21 1 26 -10q4 -6 4 -27t12 -26q0 -3 -12 -14 q10 -14 10 -53q0 -24 -6 -42q37 -16 75 -33q44 -19 77 -22zM645 623q-13 -1 -28 31t-36 32q-21 6 -46.5 -0.5t-30.5 -54.5q-11 -34 53 -74l79 -40l1 17q-1 3 -1 6q0 9 9 18v65zM612 475q-155 63 -169 151q0 6 1 12q-1 1 -8 5q-3 2 -3 8q0 3 12 38q-8 0 -20.5 -5.5 t-16.5 -5.5q-5 0 -5 1l1 1q0 2 -5 2q-10 0 -57 -40q-52 -45 -62 -50q-29 -45 -67 -80q-1 -10 -18.5 -28.5t-27.5 -20.5q-4 -8 -13 -13q-2 -21 -25 -55q-30 -46 -34 -54t-11 -52q-4 -31 -27 -47v-130q0 -23 34 -58.5t58 -35.5q3 0 9 2t10 2q47 0 175 92q1 -2 1 -4 q0 -5 -1.5 -4.5t-1.5 -4.5q0 -2 1 -4q6 4 19 9q0 1 -12 10q2 4 7 9q5 2 14 8q11 11 23 22q16 15 26 13q38 54 112 163q4 -3 8 -3h2q-5 5 -5 11q0 9 15.5 22t17.5 17q9 16 19 44q12 38 24 53z" />
<glyph unicode="&#x153;" horiz-adv-x="752" d="M869 230q-10 -5 -21 -4q1 -3 1 -6q0 -15 -34 -28t-35 -30q-16 -7 -90 -58q-63 -43 -83 -43q-10 -5 -10 -10q0 -2 4 -4h-3q-2 0 -15 -3q-6 -4 -5 -11q-8 -3 -22 -9q-2 -1 -23 -13q-16 -9 -22 -9q-11 0 -32 -3.5t-32 -3.5q-32 0 -45 20q-5 -5 -5 -10q-57 49 -57 125 q0 23 1 40q11 5 28 21q8 19 26 57q3 4 29 29q20 19 18 32h4q14 -1 18 24q69 50 84 61q60 38 92 38q14 0 27 -8q7 -5 14 -9l7 3l3 -6t2 -7q0 -20 -16 -20q-4 0 -5 2t-4 1q-3 -30 -46.5 -73.5t-41.5 -54.5h-6q-12 0 -21 -11.5t-17 -22.5q-12 -6 -34 -19q-6 -8 -21 -21 q-27 -15 -54 -31q-26 -19 -26 -53q0 -21 12.5 -42t31.5 -21q43 0 91.5 23.5t49.5 23.5q3 0 3 -1v0q0 -2 4 -2q9 0 9 17l11 -7q20 31 78 63q47 24 93 48q0 6 -7 6q10 1 33.5 18.5t43.5 17.5q4 0 7.5 -5.5t7.5 -10.5zM570 337q-63 -28 -118 -97l9 -5q29 23 85 74q8 6 16.5 12 t7.5 16zM558 351q-20 1 -32 1q-10 0 -32 -1t-33 -1q-4 0 -8 -3.5t-8 -3.5q-9 0 -28 1.5t-28 1.5q-5 0 -14.5 -5t-14.5 -5q-6 0 -18 3.5t-18 3.5q-10 0 -28 -16l-25 -23q-6 -50 -13 -76q-12 -48 -36 -65q2 -7 10 -8l-74 -122q-52 -69 -116 -69q-14 0 -30 20.5t-16 35.5 q0 5 14 17q-6 6 -17 6q8 30 29 89l3 -7q10 10 32 63q17 41 46 49q-1 9 -11 9q14 9 41 28q-1 8 -10 9q18 20 37 41t18 50q154 7 156 7q8 0 24 -2t24 -2t22.5 5t22.5 5t25.5 -6t26.5 -6q39 0 69 -3zM215 275q0 5 -2 14.5t-2 13.5q-24 -15 -55 -63q-36 -54 -52 -69 q-42 -86 -42 -110v-28q10 4 31 10q25 19 73.5 111t48.5 121z" />
<glyph unicode="&#x2000;" horiz-adv-x="465" />
<glyph unicode="&#x2001;" horiz-adv-x="930" />
<glyph unicode="&#x2002;" horiz-adv-x="465" />
<glyph unicode="&#x2003;" horiz-adv-x="930" />
<glyph unicode="&#x2004;" horiz-adv-x="310" />
<glyph unicode="&#x2005;" horiz-adv-x="232" />
<glyph unicode="&#x2006;" horiz-adv-x="155" />
<glyph unicode="&#x2007;" horiz-adv-x="155" />
<glyph unicode="&#x2008;" horiz-adv-x="116" />
<glyph unicode="&#x2009;" horiz-adv-x="186" />
<glyph unicode="&#x200a;" horiz-adv-x="51" />
<glyph unicode="&#x2013;" horiz-adv-x="500" d="M100 250v100h300v-100h-300z" />
<glyph unicode="&#x2014;" horiz-adv-x="1000" d="M100 250v100h800v-100h-800z" />
<glyph unicode="&#x2026;" horiz-adv-x="1221" d="M1136 34q0 -19 -18.5 -32t-37.5 -13q-13 0 -27.5 12t-14.5 24v44q60 16 56 16q9 0 25.5 -21t16.5 -30zM729 34q0 -19 -18.5 -32t-37.5 -13q-13 0 -27.5 12t-14.5 24v44q60 16 56 16q9 0 25.5 -21t16.5 -30zM322 34q0 -19 -18.5 -32t-37.5 -13q-13 0 -27.5 12t-14.5 24v44 q60 16 56 16q9 0 25.5 -21t16.5 -30z" />
<glyph unicode="&#x202f;" horiz-adv-x="186" />
<glyph unicode="&#x205f;" horiz-adv-x="232" />
<glyph unicode="&#x2122;" horiz-adv-x="1770" d="M1877 212q-7 -11 -20 -18q-17 -8 -22 -12q-10 -33 -48 -72l-64 -62q-50 -49 -69 -63q-42 -31 -84 -31q-57 0 -97 50q-38 47 -38 105q0 6 4.5 19t5.5 18q-4 12 -4 26q0 36 25 83q30 56 34 75q9 2 22 18t22 20q-6 6 -11 6q1 47 93 178q0 7 -6 12q-81 -77 -239 -235 q-16 -14 -43 -45q-8 -12 -27 -36q-9 -5 -29 -27q-39 -56 -82 -124q0 2 0 -7q0 -11 -18 -32q-23 -25 -26 -31q-10 -10 -21 -10q-4 0 -7 6t-8 6q-4 0 -4.5 -2t-4.5 -2q-7 0 -12 9.5t-5 16.5q0 17 35 65q42 57 47 68q7 4 10 26q4 26 11 34l14 6q21 34 42 69q29 49 31 68l28 48 q15 29 13 53q39 64 39 67q0 6 -6 17q-2 -2 -119 -108q-71 -65 -123 -103q-4 -3 -2 -13q-47 -47 -143 -134q-25 -15 -68 -50q0 -8 -5 -22q-6 -9 -25 -22t-25 -23q-27 -49 -86 -142q1 -65 -59 -65q-32 0 -32 36q0 33 32 79q28 40 61 64q5 11 56 86q36 52 39 94q11 5 23 41 q11 32 37 34v4q0 4 -8 4t-11 -3q8 16 21 58q2 15 18 30q4 15 15 26v3q0 2 7 12.5t8 14.5q3 20 10 59q12 10 33 30q-8 10 -8 18t9 19.5t10 18.5q-3 2 -20 8t-21 6q-6 0 -33 -11.5t-33 -11.5q-4 0 -11 2t-11 2q-6 0 -59 -30t-59 -37q-15 -17 -15 -45q0 -14 7 -21 q-7 -9 -14.5 -16.5t-20.5 -7.5q-19 0 -35 23t-16 42q0 26 28 56q25 26 52 38q76 34 124 38q103 8 176 36q9 3 36 22q15 11 49 11q9 0 41 -24q-8 -13 -16 -43q-16 3 -10 3q-7 0 -43 -26q-30 -22 -43 -34q-8 -10 -26 -29q-12 -51 -48 -124q-56 -111 -60 -119q-11 -5 -31 -18 q0 -1 11 -6q6 -3 6 -9t-6 -6l-9 4q0 1 -10 -61q2 -2 5 -2q35 0 31 24q3 2 29 22q22 17 27 17q4 0 8.5 -2t8.5 -2q2 2 2 6q0 6 -6 11q2 4 4 8.5t7 4.5q4 0 4 -1v-1q0 -2 4 -2q31 35 50 66q9 5 26 15q12 4 24 7q18 6 18 12q0 7 -4 14q19 4 39.5 35t27.5 31q5 0 5.5 -3.5 t4.5 -3.5q13 0 12 18l8 -3q23 21 75 88q6 9 8 9l18 -4q0 13 8 33q21 23 39 23q5 0 6 -1.5t3 -2.5q45 74 47 76q34 42 74 42q5 0 31 -29q-3 -15 -17 -42q-10 -13 -45 -39q-26 -19 -42 -51q-47 -91 -135 -276l5 -6q3 2 65 69q54 58 59 58q4 0 3.5 -1.5t3.5 -2.5q2 3 2 6 q0 5 -3 8q11 2 30 23.5t31 21.5q6 0 11 -3v6q0 6 -5 15q13 10 39 32l63 57q16 19 33 37q23 26 39 26q9 0 11 -4q6 4 7 17q2 1 34 35t42 34q14 0 28.5 -11.5t14.5 -25.5q0 -5 -6 -21t-7 -22q-31 -24 -88 -77q-8 -15 -25 -43q-17 -19 -46 -61q-31 -53 -62 -105 q-35 -63 -49 -112q-8 -31 -15 -31q-2 0 -4 1t-3 1q-2 0 -3 -1l1 -3q0 4 -7 -30q-1 -20 -3 -40q-2 -24 -17 -32q14 -77 23 -93q21 -36 82 -36q12 0 53.5 28t40.5 39q5 5 19 4q-1 12 26 32l38 26q7 9 22 27q11 7 31 23q13 5 37 20h18zM1533 512l-2 5l-9 -5v-5zM1003 802 q-1 -6 -15 -14v-3q0 -16 -25 -42q-29 -30 -33 -41q-16 3 -31 6q-18 5 -18 21q0 7 5 21t5 21q-13 0 -39 -4.5t-39 -4.5q-5 0 -8.5 4t-7.5 4q-2 0 -22.5 -8t-30.5 -8h-44q-4 0 -4.5 -4t-5.5 -4q-4 1 -4 3v1q0 4 -4 4q-5 0 -11 -4q-10 -7 -11 -8l-22 7q4 0 11 -1.5t10 -1.5 q4 4 11 18h1q0 2 -7 2q-44 0 -38 -27q-7 0 -20 -4.5t-20 -4.5q-5 0 -7 4t-7 4q-6 0 -17 -6t-17 -6q-4 0 -9.5 2t-8.5 2q-6 0 -19 -6t-19 -6q-5 0 -5.5 2t-4.5 2q-6 0 -14.5 -12t-13.5 -12t-5.5 2t-4.5 2q-6 0 -10 -14q-19 -13 -23 -40q-6 -38 -9 -44.5t-22 -29.5 q-16 -18 -16 -28q0 -7 6 -14q-33 -101 -40 -124q-21 -70 -32 -126q-5 -3 -14 -11q1 -6 1 -12q0 -20 -8 -51q-11 -41 -13 -49q-3 -51 -5 -102q-8 -77 -42 -77q-3 0 -8 2t-8 2q-6 0 -8 -5l-3 -10q-9 0 -22 15t-13 25q0 23 20 87q22 68 36 76q0 4 -6 9t-6 10q0 6 15 31t21 30 q-8 17 -8 21q0 26 31 113q33 92 49 94l-8 7v37l20 36q13 25 13 37q0 7 -4 14q21 51 32 92q-21 0 -61 5q7 5 7 9l-2 5q-17 -6 -18 -19q-15 7 -27 7q-6 0 -6 -6q-11 -1 -33.5 -3.5t-34.5 -2.5q-4 0 -13 2t-13 2t-14.5 -9t-15.5 -10q-18 -2 -54 -15q8 -8 8 -18q0 -18 -14 -32 q-25 20 -49 39q-34 28 -34 47q0 32 128 40q44 3 164 3q66 0 95 12q6 3 8 17q2 11 4 21q1 7 19 14q15 8 24 8q6 0 21.5 -8.5t19 -13.5t3.5 -28q2 -6 16 -6q16 0 48 7.5t48 7.5q6 1 5 -1v-4q0 -2 1 -3q5 4 12 11q87 12 175 24q103 14 176 14q17 0 60 -17zM541 739q0 11 -11 11 q-4 0 -10.5 -2.5t-9.5 -2.5q11 -1 31 -6z" />
<glyph unicode="&#xe000;" horiz-adv-x="375" d="M0 375h375v-375h-375v375z" />
<glyph unicode="&#xfb01;" horiz-adv-x="785" d="M919 596q-5 -7 -15 -18q-6 6 -10 6q-8 0 -12 -6l-8 6l-3 -5l1 -4q-1 0 -5 1.5t-6 1.5q-4 0 -14.5 -5.5t-13.5 -5.5q-40 -8 -119 -27q-10 -11 -31 -25q-26 -17 -33 -23q-13 7 -25 23q-17 22 -22 27v2q-1 7 9 15.5t17 8.5q3 0 3 -1v-1q0 -2 3 -2q-1 0 14.5 7t30.5 7 q4 0 13 -2t13 -2q35 23 68 25t64 4q37 4 62 1q6 3 6 6q4 -5 13 -14zM842 200q0 -26 -46 -62q-32 -25 -69 -44q-12 -7 -40 -9q-2 -6 -12 -18q-10 -8 -58 -33.5t-56 -25.5q-11 0 -33 -5t-34 -5q-22 0 -44 29t-22 52q0 10 16 42.5t24 40.5q0 11 22 33q12 31 58 94q52 71 73 71 l8 -5t19 -5q4 -14 4 -11q0 -7 -4 -21t-4 -19q-29 -26 -59 -51q-37 -34 -47 -58q-11 -4 -13 -16q-4 -22 -4 -23q-8 -15 -15 -29q-9 -17 -9 -33q0 -38 18 -38t60 15q52 19 61 22q4 4 4 10q26 10 59 28q2 2 0 12q5 1 9 1t4 -2q0 -3 -10 -9q26 14 69 49q5 0 57 28q0 -1 7 -1 t7 -4zM574 244q-48 -6 -114 -24q-55 -17 -57 -17q-5 0 -13 2.5t-12 2.5q-20 0 -183 -59q-7 -15 -27 -59q2 -8 19 -8q-7 -16 -13 -32q-10 -24 -17 -24q-5 0 -5 2q1 1 1 5q0 2 -1 3q-12 -9 -14 -39q-2 -35 -5 -42l-17 -25q-11 -17 -11 -27q0 -8 17 -14q-6 -3 -14.5 -18 t-13.5 -48t-10 -46q-5 -16 -17.5 -29t-15.5 -23q0 -18 -9 -52q-5 -12 -15 -35q-7 -31 -25 -91q-10 -27 -32 -84q-11 -9 -27 -42h-13q-5 0 -5 3l1 2q0 6 -5 6q-6 0 -14 -5.5t-13 -5.5q-1 3 -11 27q-8 20 -8 27q0 8 9 24t10 23q12 12 40 29q8 49 39 117q27 57 53 114 q10 21 27 80q6 22 23 57q20 38 33 47q-4 7 -13 20q20 51 63 151q-4 13 -14 13q-36 0 -68 -12t-65 -27q-4 3 -15 3t-11 30q0 40 50 54q39 6 79 13q33 6 78 9q8 11 9.5 26.5t16.5 31.5q-14 16 -14 22q0 4 17 23l9 -10q7 7 7 14q0 9 -14 18q2 5 17 53q11 33 27 49q0 61 55 135 q11 41 32 73q10 17 10 16q0 4 -3.5 10.5t-3.5 9.5q32 46 64 91q48 68 70 68q24 0 43.5 -30t19.5 -57q0 -36 -46.5 -114t-79.5 -95q6 14 6 23l14 -5q5 23 28 92q19 57 19 92q-21 -12 -53.5 -49t-53.5 -49q4 -7 4 -16l-1 -17l-5 11q-2 -1 -25 -14q0 -6 9 -14 q-100 -154 -100 -238q0 -19 7 -30l-18 4q-23 -53 -36 -95q3 -1 13 -1q53 0 158 9.5t158 9.5z" />
<glyph unicode="&#xfb02;" horiz-adv-x="764" d="M718 32q-4 4 -25 4q-6 0 -11 -10t-5 -17h-3q-7 0 -10 3q-44 -38 -78 -38q-10 0 -13 4l-11 -8l2 5q0 3 -5 3q-3 0 -10.5 -4t-12.5 -4q-11 0 -30 21q-13 16 -26 31q6 4 15 15q-2 3 -6 3q-5 0 -12 -4q0 7 -4.5 19.5t-4.5 19.5q0 10 10 25.5t10 26.5t-4 21l8 -4q-1 9 -1 18.5 t-7 14.5q29 26 23 60q5 0 16 11v1q0 3 -8 19l4 -1q16 0 24 29q10 40 11 42q11 6 18 15q12 16 15 19q-6 21 -5 31v3q3 1 10 5q0 7 -8 15q12 3 15 15.5t6 16.5q10 12 29 47q16 31 32 45q-7 6 -15 6q4 6 4 11q5 0 9 -4q8 8 25 22q-1 3 -8.5 7.5t-7.5 9.5q0 6 14 21t14 17 q4 -4 12 -4l7 7q-7 9 -19 15q17 20 32 63q8 24 39 24q5 0 19 -6.5t18 -9.5q-2 -10 -4 -30q-23 0 -30 -30q-7 -4 -17 -36t-21 -41q-38 -35 -38 -49q0 -5 2 -9q-23 -33 -23 -42q0 -5 3 -9q-24 -12 -31 -29q-4 -20 -9 -40q-31 -20 -29 -46q-6 -13 -24 -36q6 -8 6 -17 q0 -15 -20.5 -43t-20.5 -43q0 -7 4 -14q-14 -5 -19 -62q-6 -9 -6 -19q0 -4 2 -8h-3q-5 0 -9 -3q4 -4 16 -53q10 -42 27 -42q9 0 66 25t62 25q4 1 4 -1v0q0 -2 4 -2q50 46 66 46q4 1 4 -1v0q0 -2 4 -2q5 0 17 6.5t21 6.5l6 -1q-13 -21 -48 -50q-41 -34 -53 -48zM574 244 q-48 -6 -114 -24q-55 -17 -57 -17q-5 0 -13 2.5t-12 2.5q-20 0 -183 -59q-7 -15 -27 -59q2 -8 19 -8q-7 -16 -13 -32q-10 -24 -17 -24q-5 0 -5 2q1 1 1 5q0 2 -1 3q-12 -9 -14 -39q-2 -35 -5 -42l-17 -25q-11 -17 -11 -27q0 -8 17 -14q-6 -3 -14.5 -18t-13.5 -48t-10 -46 q-5 -16 -17.5 -29t-15.5 -23q0 -18 -9 -52q-5 -12 -15 -35q-7 -31 -25 -91q-10 -27 -32 -84q-11 -9 -27 -42h-13q-5 0 -5 3l1 2q0 6 -5 6q-6 0 -14 -5.5t-13 -5.5q-1 3 -11 27q-8 20 -8 27q0 8 9 24t10 23q12 12 40 29q8 49 39 117q27 57 53 114q10 21 27 80q6 22 23 57 q20 38 33 47q-4 7 -13 20q20 51 63 151q-4 13 -14 13q-36 0 -68 -12t-65 -27q-4 3 -15 3t-11 30q0 40 50 54q39 6 79 13q33 6 78 9q8 11 9.5 26.5t16.5 31.5q-14 16 -14 22q0 4 17 23l9 -10q7 7 7 14q0 9 -14 18q2 5 17 53q11 33 27 49q0 61 55 135q11 41 32 73q10 17 10 16 q0 4 -3.5 10.5t-3.5 9.5q32 46 64 91q48 68 70 68q24 0 43.5 -30t19.5 -57q0 -36 -46.5 -114t-79.5 -95q6 14 6 23l14 -5q5 23 28 92q19 57 19 92q-21 -12 -53.5 -49t-53.5 -49q4 -7 4 -16l-1 -17l-5 11q-2 -1 -25 -14q0 -6 9 -14q-100 -154 -100 -238q0 -19 7 -30l-18 4 q-23 -53 -36 -95q3 -1 13 -1q53 0 158 9.5t158 9.5z" />
<glyph unicode="&#xfb03;" horiz-adv-x="1233" d="M1367 596q-5 -7 -15 -18q-6 6 -10 6q-8 0 -12 -6l-8 6l-3 -5l1 -4q-1 0 -5 1.5t-6 1.5q-4 0 -14.5 -5.5t-13.5 -5.5q-40 -8 -119 -27q-10 -11 -31 -25q-26 -17 -33 -23q-13 7 -25 23q-17 22 -22 27v2q-1 7 9 15.5t17 8.5q3 0 3 -1v-1q0 -2 3 -2q-1 0 14.5 7t30.5 7 q4 0 13 -2t13 -2q35 23 68 25t64 4q37 4 62 1q6 3 6 6q4 -5 13 -14zM1290 200q0 -26 -46 -62q-32 -25 -69 -44q-12 -7 -40 -9q-2 -6 -12 -18q-10 -8 -58 -33.5t-56 -25.5q-11 0 -33 -5t-34 -5q-22 0 -44 29t-22 52q0 10 16 42.5t24 40.5q0 11 22 33q12 31 58 94q52 71 73 71 l8 -5t19 -5q4 -14 4 -11q0 -7 -4 -21t-4 -19q-29 -26 -59 -51q-37 -34 -47 -58q-11 -4 -13 -16q-4 -22 -4 -23q-8 -15 -15 -29q-9 -17 -9 -33q0 -38 18 -38t60 15q52 19 61 22q4 4 4 10q26 10 59 28q2 2 0 12q5 1 9 1t4 -2q0 -3 -10 -9q26 14 69 49q5 0 57 28q0 -1 7 -1 t7 -4zM1022 244q-48 -6 -114 -24q-55 -17 -57 -17q-5 0 -13 2.5t-12 2.5q-20 0 -183 -59q-7 -15 -27 -59q2 -8 19 -8q-7 -16 -13 -32q-10 -24 -17 -24q-5 0 -5 2q1 1 1 5q0 2 -1 3q-12 -9 -14 -39q-2 -35 -5 -42l-17 -25q-11 -17 -11 -27q0 -8 17 -14q-6 -3 -14.5 -18 t-13.5 -48t-10 -46q-5 -16 -17.5 -29t-15.5 -23q0 -18 -9 -52q-5 -12 -15 -35q-7 -31 -25 -91q-10 -27 -32 -84q-11 -9 -27 -42h-13q-5 0 -5 3l1 2q0 6 -5 6q-6 0 -14 -5.5t-13 -5.5q-1 3 -11 27q-8 20 -8 27q0 8 9 24t10 23q12 12 40 29q8 49 39 117q27 57 53 114 q10 21 27 80q6 22 23 57q20 38 33 47q-4 7 -13 20q20 51 63 151q-4 13 -14 13q-36 0 -68 -12t-65 -27q-4 3 -15 3t-11 30q0 40 50 54q39 6 79 13q33 6 78 9q8 11 9.5 26.5t16.5 31.5q-14 16 -14 22q0 4 17 23l9 -10q7 7 7 14q0 9 -14 18q2 5 17 53q11 33 27 49q0 61 55 135 q11 41 32 73q10 17 10 16q0 4 -3.5 10.5t-3.5 9.5q32 46 64 91q48 68 70 68q24 0 43.5 -30t19.5 -57q0 -36 -46.5 -114t-79.5 -95q6 14 6 23l14 -5q5 23 28 92q19 57 19 92q-21 -12 -53.5 -49t-53.5 -49q4 -7 4 -16l-1 -17l-5 11q-2 -1 -25 -14q0 -6 9 -14 q-100 -154 -100 -238q0 -19 7 -30l-18 4q-23 -53 -36 -95q3 -1 13 -1q53 0 158 9.5t158 9.5zM574 244q-48 -6 -114 -24q-55 -17 -57 -17q-5 0 -13 2.5t-12 2.5q-20 0 -183 -59q-7 -15 -27 -59q2 -8 19 -8q-7 -16 -13 -32q-10 -24 -17 -24q-5 0 -5 2q1 1 1 5q0 2 -1 3 q-12 -9 -14 -39q-2 -35 -5 -42l-17 -25q-11 -17 -11 -27q0 -8 17 -14q-6 -3 -14.5 -18t-13.5 -48t-10 -46q-5 -16 -17.5 -29t-15.5 -23q0 -18 -9 -52q-5 -12 -15 -35q-7 -31 -25 -91q-10 -27 -32 -84q-11 -9 -27 -42h-13q-5 0 -5 3l1 2q0 6 -5 6q-6 0 -14 -5.5t-13 -5.5 q-1 3 -11 27q-8 20 -8 27q0 8 9 24t10 23q12 12 40 29q8 49 39 117q27 57 53 114q10 21 27 80q6 22 23 57q20 38 33 47q-4 7 -13 20q20 51 63 151q-4 13 -14 13q-36 0 -68 -12t-65 -27q-4 3 -15 3t-11 30q0 40 50 54q39 6 79 13q33 6 78 9q8 11 9.5 26.5t16.5 31.5 q-14 16 -14 22q0 4 17 23l9 -10q7 7 7 14q0 9 -14 18q2 5 17 53q11 33 27 49q0 61 55 135q11 41 32 73q10 17 10 16q0 4 -3.5 10.5t-3.5 9.5q32 46 64 91q48 68 70 68q24 0 43.5 -30t19.5 -57q0 -36 -46.5 -114t-79.5 -95q6 14 6 23l14 -5q5 23 28 92q19 57 19 92 q-21 -12 -53.5 -49t-53.5 -49q4 -7 4 -16l-1 -17l-5 11q-2 -1 -25 -14q0 -6 9 -14q-100 -154 -100 -238q0 -19 7 -30l-18 4q-23 -53 -36 -95q3 -1 13 -1q53 0 158 9.5t158 9.5z" />
<glyph unicode="&#xfb04;" horiz-adv-x="1212" d="M1166 32q-4 4 -25 4q-6 0 -11 -10t-5 -17h-3q-7 0 -10 3q-44 -38 -78 -38q-10 0 -13 4l-11 -8l2 5q0 3 -5 3q-3 0 -10.5 -4t-12.5 -4q-11 0 -30 21q-13 16 -26 31q6 4 15 15q-2 3 -6 3q-5 0 -12 -4q0 7 -4.5 19.5t-4.5 19.5q0 10 10 25.5t10 26.5t-4 21l8 -4 q-1 9 -1 18.5t-7 14.5q29 26 23 60q5 0 16 11v1q0 3 -8 19l4 -1q16 0 24 29q10 40 11 42q11 6 18 15q12 16 15 19q-6 21 -5 31v3q3 1 10 5q0 7 -8 15q12 3 15 15.5t6 16.5q10 12 29 47q16 31 32 45q-7 6 -15 6q4 6 4 11q5 0 9 -4q8 8 25 22q-1 3 -8.5 7.5t-7.5 9.5 q0 6 14 21t14 17q4 -4 12 -4l7 7q-7 9 -19 15q17 20 32 63q8 24 39 24q5 0 19 -6.5t18 -9.5q-2 -10 -4 -30q-23 0 -30 -30q-7 -4 -17 -36t-21 -41q-38 -35 -38 -49q0 -5 2 -9q-23 -33 -23 -42q0 -5 3 -9q-24 -12 -31 -29q-4 -20 -9 -40q-31 -20 -29 -46q-6 -13 -24 -36 q6 -8 6 -17q0 -15 -20.5 -43t-20.5 -43q0 -7 4 -14q-14 -5 -19 -62q-6 -9 -6 -19q0 -4 2 -8h-3q-5 0 -9 -3q4 -4 16 -53q10 -42 27 -42q9 0 66 25t62 25q4 1 4 -1v0q0 -2 4 -2q50 46 66 46q4 1 4 -1v0q0 -2 4 -2q5 0 17 6.5t21 6.5l6 -1q-13 -21 -48 -50q-41 -34 -53 -48z M1022 244q-48 -6 -114 -24q-55 -17 -57 -17q-5 0 -13 2.5t-12 2.5q-20 0 -183 -59q-7 -15 -27 -59q2 -8 19 -8q-7 -16 -13 -32q-10 -24 -17 -24q-5 0 -5 2q1 1 1 5q0 2 -1 3q-12 -9 -14 -39q-2 -35 -5 -42l-17 -25q-11 -17 -11 -27q0 -8 17 -14q-6 -3 -14.5 -18t-13.5 -48 t-10 -46q-5 -16 -17.5 -29t-15.5 -23q0 -18 -9 -52q-5 -12 -15 -35q-7 -31 -25 -91q-10 -27 -32 -84q-11 -9 -27 -42h-13q-5 0 -5 3l1 2q0 6 -5 6q-6 0 -14 -5.5t-13 -5.5q-1 3 -11 27q-8 20 -8 27q0 8 9 24t10 23q12 12 40 29q8 49 39 117q27 57 53 114q10 21 27 80 q6 22 23 57q20 38 33 47q-4 7 -13 20q20 51 63 151q-4 13 -14 13q-36 0 -68 -12t-65 -27q-4 3 -15 3t-11 30q0 40 50 54q39 6 79 13q33 6 78 9q8 11 9.5 26.5t16.5 31.5q-14 16 -14 22q0 4 17 23l9 -10q7 7 7 14q0 9 -14 18q2 5 17 53q11 33 27 49q0 61 55 135q11 41 32 73 q10 17 10 16q0 4 -3.5 10.5t-3.5 9.5q32 46 64 91q48 68 70 68q24 0 43.5 -30t19.5 -57q0 -36 -46.5 -114t-79.5 -95q6 14 6 23l14 -5q5 23 28 92q19 57 19 92q-21 -12 -53.5 -49t-53.5 -49q4 -7 4 -16l-1 -17l-5 11q-2 -1 -25 -14q0 -6 9 -14q-100 -154 -100 -238 q0 -19 7 -30l-18 4q-23 -53 -36 -95q3 -1 13 -1q53 0 158 9.5t158 9.5zM574 244q-48 -6 -114 -24q-55 -17 -57 -17q-5 0 -13 2.5t-12 2.5q-20 0 -183 -59q-7 -15 -27 -59q2 -8 19 -8q-7 -16 -13 -32q-10 -24 -17 -24q-5 0 -5 2q1 1 1 5q0 2 -1 3q-12 -9 -14 -39 q-2 -35 -5 -42l-17 -25q-11 -17 -11 -27q0 -8 17 -14q-6 -3 -14.5 -18t-13.5 -48t-10 -46q-5 -16 -17.5 -29t-15.5 -23q0 -18 -9 -52q-5 -12 -15 -35q-7 -31 -25 -91q-10 -27 -32 -84q-11 -9 -27 -42h-13q-5 0 -5 3l1 2q0 6 -5 6q-6 0 -14 -5.5t-13 -5.5q-1 3 -11 27 q-8 20 -8 27q0 8 9 24t10 23q12 12 40 29q8 49 39 117q27 57 53 114q10 21 27 80q6 22 23 57q20 38 33 47q-4 7 -13 20q20 51 63 151q-4 13 -14 13q-36 0 -68 -12t-65 -27q-4 3 -15 3t-11 30q0 40 50 54q39 6 79 13q33 6 78 9q8 11 9.5 26.5t16.5 31.5q-14 16 -14 22 q0 4 17 23l9 -10q7 7 7 14q0 9 -14 18q2 5 17 53q11 33 27 49q0 61 55 135q11 41 32 73q10 17 10 16q0 4 -3.5 10.5t-3.5 9.5q32 46 64 91q48 68 70 68q24 0 43.5 -30t19.5 -57q0 -36 -46.5 -114t-79.5 -95q6 14 6 23l14 -5q5 23 28 92q19 57 19 92q-21 -12 -53.5 -49 t-53.5 -49q4 -7 4 -16l-1 -17l-5 11q-2 -1 -25 -14q0 -6 9 -14q-100 -154 -100 -238q0 -19 7 -30l-18 4q-23 -53 -36 -95q3 -1 13 -1q53 0 158 9.5t158 9.5z" />
</font>
</defs>
</svg>
